<?xml version="1.0" standalone="no"?>
<!DOCTYPE svg PUBLIC "-//W3C//DTD SVG 20010904//EN"
 "http://www.w3.org/TR/2001/REC-SVG-20010904/DTD/svg10.dtd">
<svg version="1.0" xmlns="http://www.w3.org/2000/svg"
 width="1070.000000pt" height="1280.000000pt" viewBox="0 0 1070.000000 1280.000000"
 preserveAspectRatio="xMidYMid meet">
<g transform="translate(0.000000,1280.000000) scale(0.100000,-0.100000)"
fill="#000000" stroke="none">
<path d="M10262 12768 c-29 -32 -69 -123 -83 -187 -8 -39 -8 -65 1 -99 12 -50
77 -189 92 -198 24 -15 19 12 -14 74 -20 37 -43 90 -52 119 -17 50 -17 55 5
134 41 152 94 171 143 52 36 -88 106 -217 164 -301 52 -77 97 -171 107 -225 4
-20 12 -40 18 -44 15 -9 2 48 -35 147 -22 60 -44 99 -75 133 -29 31 -65 92
-104 174 -62 133 -125 243 -138 243 -4 0 -17 -10 -29 -22z"/>
<path d="M2174 12346 c-29 -22 -23 -92 15 -163 53 -98 129 -174 222 -222 96
-48 236 -146 252 -176 6 -11 12 -77 15 -147 l5 -128 42 -64 c23 -35 47 -78 53
-95 7 -17 17 -46 24 -63 17 -47 260 -287 328 -325 142 -79 281 -300 227 -361
-13 -15 -14 -41 -6 -202 10 -189 4 -399 -13 -454 -33 -112 -28 -327 11 -470
11 -39 25 -113 31 -163 9 -85 32 -156 95 -309 28 -68 234 -291 734 -799 347
-352 401 -399 444 -389 28 6 31 0 27 -39 -2 -26 49 -127 65 -127 8 0 57 -43
109 -96 96 -95 96 -95 81 -124 -13 -25 -21 -53 -42 -138 -4 -15 1 -30 15 -45
12 -12 29 -51 37 -86 l17 -63 -41 -80 c-44 -86 -53 -132 -24 -126 10 2 25 23
36 53 19 54 57 95 87 95 24 0 29 8 36 63 6 44 6 45 -19 40 -24 -5 -27 -1 -41
48 -30 106 -30 105 0 128 24 19 26 24 16 47 -7 14 -12 27 -12 29 0 3 27 34 60
71 33 36 60 72 60 79 0 9 -15 15 -42 17 -42 3 -43 4 -46 39 -4 46 -29 69 -81
76 -66 9 -55 34 78 183 64 71 47 78 -25 10 -45 -41 -70 -58 -76 -52 -18 18 -1
55 52 114 53 59 59 78 36 98 -22 18 -41 3 -137 -107 -95 -109 -129 -128 -129
-71 0 50 51 147 115 218 61 69 61 87 0 45 -21 -14 -43 -25 -49 -25 -19 0 -56
30 -56 45 0 21 104 125 125 125 11 0 42 -9 70 -19 27 -11 65 -25 83 -31 35
-14 44 -40 12 -40 -11 0 -37 7 -57 15 -43 18 -82 20 -66 4 15 -15 158 -49 206
-49 20 0 37 5 37 10 0 6 -3 10 -8 10 -18 0 -61 51 -55 66 8 22 -14 34 -63 34
-22 0 -73 11 -112 25 -39 14 -76 25 -81 25 -6 0 -15 -18 -21 -40 -9 -34 -15
-40 -46 -46 -50 -9 -62 6 -41 50 11 25 15 49 10 85 -7 60 9 89 95 174 l59 58
-18 81 c-19 86 -17 97 17 143 34 46 93 181 109 252 16 70 45 132 70 153 15 12
23 11 58 -8 75 -40 137 -91 137 -112 0 -11 -20 -77 -44 -147 -49 -144 -61
-193 -49 -193 8 0 61 138 91 240 21 69 28 80 52 80 34 0 32 -40 -9 -177 -44
-149 -66 -242 -57 -251 11 -11 25 12 37 63 21 87 79 260 95 283 17 25 46 29
63 8 10 -11 8 -23 -8 -55 -12 -22 -21 -58 -21 -79 0 -21 -16 -94 -36 -161 -34
-116 -39 -158 -14 -111 6 11 36 94 66 182 29 89 61 169 69 177 13 13 18 13 42
-5 16 -12 29 -30 31 -41 2 -10 -13 -56 -32 -101 -64 -149 -103 -293 -81 -300
6 -2 22 42 36 98 15 56 44 136 65 178 33 65 43 77 64 77 41 0 37 -46 -14 -171
-35 -85 -86 -241 -86 -261 0 -2 4 -3 9 -3 5 0 37 77 72 170 34 94 68 178 74
187 21 29 57 7 120 -72 85 -109 154 -225 155 -259 0 -16 -9 -49 -20 -72 -23
-46 -193 -254 -331 -406 -98 -106 -116 -136 -39 -64 28 26 59 46 72 46 16 1
80 55 207 175 101 97 192 175 202 175 25 0 51 -29 118 -131 69 -103 113 -225
112 -311 0 -50 7 -73 51 -163 62 -128 66 -170 23 -215 -76 -80 -333 -210 -635
-322 -137 -50 -320 -132 -320 -143 0 -3 18 4 40 15 22 11 141 58 263 105 432
163 633 263 705 351 24 29 38 37 62 37 31 0 50 -15 50 -40 0 -17 -41 -53 -60
-53 -21 0 -45 -27 -55 -60 -4 -14 -12 -31 -18 -38 -14 -17 -254 -138 -367
-185 -47 -19 -168 -72 -270 -117 -102 -46 -200 -89 -219 -97 -18 -8 -31 -17
-28 -19 11 -11 578 227 778 325 78 39 105 48 119 41 20 -11 23 -6 34 62 7 38
21 52 95 98 34 20 41 29 41 56 0 36 -12 48 -55 58 -66 15 -84 27 -99 70 -25
65 -36 129 -42 239 l-6 102 68 94 c77 105 99 124 114 101 13 -20 27 -73 36
-145 l9 -60 3 45 c7 95 -37 220 -78 220 -27 0 -71 -41 -133 -125 -33 -44 -61
-71 -75 -73 -12 -2 -22 2 -22 9 0 32 -77 179 -117 222 -39 42 -43 51 -38 80 4
20 0 57 -10 90 -15 53 -18 57 -53 62 -74 11 -86 19 -119 75 -66 115 -88 144
-189 249 -124 130 -179 173 -304 242 -52 28 -115 66 -140 83 -25 18 -85 56
-135 85 -97 58 -206 132 -242 164 -30 27 -31 95 -2 153 22 47 50 62 83 45 11
-7 63 -73 115 -147 146 -209 125 -154 -32 87 -59 90 -70 99 -116 99 -41 0 -58
-18 -83 -90 -20 -56 -26 -65 -48 -65 -23 0 -25 3 -23 42 l2 42 -43 -5 c-41 -6
-44 -4 -91 47 -147 158 -171 180 -192 185 -13 4 -34 19 -47 35 -31 36 -85 149
-101 211 -19 69 -39 252 -31 282 7 30 40 35 55 9 21 -35 12 31 -18 138 -16 57
-37 142 -47 189 -9 47 -20 94 -24 106 -5 11 -81 92 -170 180 -168 165 -354
377 -480 549 -153 208 -301 384 -421 500 -68 67 -140 130 -159 142 -78 47
-243 83 -485 107 -179 18 -233 33 -311 86 -64 44 -80 47 -110 26z m116 -70
c82 -42 126 -52 325 -71 233 -23 376 -62 470 -129 74 -52 229 -222 386 -421
65 -82 129 -163 142 -180 13 -16 31 -44 40 -61 14 -27 14 -34 3 -43 -20 -17
-82 10 -91 39 -7 21 -8 21 -26 4 -24 -21 -36 -11 -41 33 -2 27 -19 -3 -97
-180 -110 -248 -115 -257 -142 -257 -19 0 -21 5 -16 38 2 20 14 63 26 96 26
69 24 109 -3 58 -26 -49 -52 -40 -49 18 2 39 1 42 -10 26 -7 -10 -21 -32 -32
-50 -12 -17 -25 -29 -30 -26 -6 3 -9 33 -7 67 2 33 -1 64 -6 67 -5 3 -19 -17
-32 -44 -38 -80 -52 -67 -44 40 7 92 1 128 -33 211 -10 24 -13 49 -8 70 11 52
46 129 59 129 16 0 51 -25 110 -77 27 -24 62 -53 79 -65 28 -20 29 -20 19 -1
-6 10 -67 78 -136 151 l-126 131 0 74 c0 92 -14 133 -51 152 -36 19 -43 7 -22
-41 12 -28 17 -68 17 -139 l1 -100 -71 -170 c-80 -192 -91 -202 -133 -126 -32
59 -38 161 -17 311 9 63 16 121 16 130 0 21 -136 124 -155 116 -11 -4 -15 -21
-15 -65 0 -33 -5 -63 -11 -66 -5 -4 -61 18 -124 49 -102 50 -119 62 -165 118
-59 74 -100 151 -100 190 0 38 20 36 100 -6z m738 -545 c6 -59 -91 -359 -129
-400 -28 -29 -49 -12 -49 39 0 77 82 343 117 383 27 29 57 18 61 -22z m633
-393 c31 19 44 14 88 -33 48 -52 55 -97 19 -116 -13 -6 -49 -36 -81 -66 -49
-47 -62 -54 -85 -49 -47 11 -68 46 -81 135 -7 45 -9 91 -6 102 9 28 42 38 88
26 28 -7 45 -7 58 1z m-183 -62 c4 -32 -13 -56 -39 -56 -25 0 -26 46 -2 72 22
24 37 18 41 -16z m-58 -140 c0 -41 -34 -153 -55 -183 -18 -26 -50 -30 -58 -9
-11 29 36 165 75 214 20 24 38 13 38 -22z m511 -60 c39 -44 128 -133 197 -197
l127 -115 -3 -61 c-3 -41 1 -70 12 -91 24 -46 21 -89 -7 -107 -28 -18 -217
-39 -266 -30 -19 4 -49 18 -68 32 l-33 26 -68 -31 c-112 -51 -222 -73 -222
-44 0 4 18 38 40 75 33 55 40 75 40 119 0 63 -21 148 -56 232 -15 34 -28 74
-31 89 -7 36 20 67 58 67 20 0 33 9 47 33 27 42 72 84 97 89 43 8 67 -7 136
-86z m-435 1 l27 -24 -37 -64 c-42 -71 -85 -121 -98 -113 -14 9 -9 59 13 130
31 102 46 113 95 71z m87 -178 c14 -23 -13 -64 -49 -73 -47 -12 -53 25 -10 72
22 25 44 25 59 1z m55 -220 c-5 -52 -19 -76 -37 -65 -14 9 -14 71 -1 97 6 10
18 19 27 19 13 0 15 -9 11 -51z m295 -224 c25 -10 71 -15 147 -15 76 0 122 5
147 15 73 31 84 8 26 -56 -70 -77 -109 -84 -245 -43 l-88 27 -157 -27 c-226
-40 -243 -42 -243 -24 0 17 105 68 190 93 30 8 73 22 95 29 55 18 86 19 128 1z
m85 -137 c51 -31 142 -31 211 2 41 19 54 21 60 11 5 -7 11 -54 14 -104 7 -112
44 -245 97 -350 46 -91 133 -227 179 -280 30 -33 35 -36 46 -21 9 13 16 14 32
6 23 -13 83 -78 83 -91 0 -5 -18 -36 -40 -69 -70 -104 -243 -254 -338 -292
-28 -11 -35 -10 -51 4 -9 9 -24 16 -32 15 -10 0 -10 -2 -1 -6 18 -7 14 -41 -7
-52 -18 -10 -88 -5 -281 19 -91 11 -130 3 -257 -51 -105 -44 -131 -46 -150 -9
-19 38 -17 114 5 132 24 22 44 27 65 16 23 -12 22 -43 -5 -86 -22 -36 -19 -36
32 -2 14 9 58 27 98 40 63 20 86 22 168 17 84 -5 98 -3 114 13 18 18 17 19
-33 30 -64 15 -97 35 -97 58 0 10 -7 27 -15 39 -9 12 -24 55 -34 95 -28 107
-50 186 -72 251 -23 69 -24 168 -4 320 18 136 71 338 92 355 26 19 82 14 121
-10z m-348 -32 c0 -15 -49 -36 -86 -36 -34 0 -30 28 4 36 15 3 32 7 37 9 24 8
45 4 45 -9z m50 -64 c0 -16 -34 -40 -140 -97 -58 -32 -114 -63 -125 -71 -11
-8 -25 -14 -32 -14 -17 0 -26 35 -18 71 6 25 17 35 63 56 93 42 252 77 252 55z
m90 -33 c0 -5 -4 -9 -10 -9 -5 0 -10 7 -10 16 0 8 5 12 10 9 6 -3 10 -10 10
-16z m-10 -68 c0 -5 -8 -28 -17 -52 -13 -35 -17 -80 -17 -214 -1 -253 42 -492
100 -557 25 -26 8 -38 -54 -38 -81 0 -106 16 -110 65 -4 72 -22 169 -43 233
-12 35 -19 75 -16 90 13 64 13 65 -13 72 -34 8 -37 41 -9 88 13 23 22 56 23
87 1 39 11 66 46 125 24 41 50 83 58 93 16 18 52 24 52 8z m-130 -65 c0 -27
-171 -156 -207 -156 -29 0 -10 29 55 82 109 90 152 111 152 74z m-205 -57 c7
-11 -22 -49 -37 -49 -19 0 -21 33 -3 46 23 17 32 17 40 3z m115 -133 c0 -18
-72 -76 -94 -76 -27 0 -18 26 19 59 37 32 75 41 75 17z m-53 -113 c6 -17 -86
-123 -106 -123 -24 0 -34 26 -21 50 13 25 100 92 114 87 5 -2 11 -8 13 -14z
m-12 -174 c8 -12 -70 -89 -91 -89 -21 0 -29 27 -13 47 17 20 70 53 86 53 6 0
15 -5 18 -11z m35 -131 c0 -25 -52 -78 -76 -78 -33 0 -32 29 4 62 39 37 72 44
72 16z m99 -5 c19 -42 26 -159 11 -178 -23 -28 -39 -17 -42 28 -3 42 -3 42
-45 45 -24 2 -43 8 -43 14 0 14 68 105 83 111 21 9 24 8 36 -20z m1193 -20
c61 -49 118 -107 118 -120 0 -7 -20 -53 -44 -101 -64 -128 -153 -358 -175
-455 -24 -101 -52 -173 -87 -226 -36 -55 -230 -231 -254 -231 -11 0 -51 30
-90 67 -78 73 -84 92 -38 126 23 17 33 19 55 11 26 -9 28 -14 25 -57 -3 -42
-1 -47 18 -47 13 0 24 10 32 28 6 15 26 59 44 99 41 86 43 110 10 123 -13 4
-26 20 -30 33 -3 14 -18 32 -33 42 -50 31 -84 69 -110 118 -19 38 -28 47 -41
42 -57 -24 -82 -9 -82 47 0 35 -13 36 -34 3 -18 -28 -44 -33 -52 -10 -11 27
-30 -1 -59 -83 -32 -91 -48 -117 -70 -109 -13 6 -13 11 2 49 10 24 33 88 53
143 l36 100 75 -3 c48 -1 91 3 118 13 24 8 74 15 111 15 72 0 86 6 69 27 -19
22 9 45 49 41 31 -4 38 1 80 51 26 31 76 90 113 131 36 41 78 94 93 118 31 50
51 53 98 15z m-1297 -153 c9 -15 -22 -60 -41 -60 -20 0 -28 24 -14 49 11 22
44 28 55 11z m1502 -7 c4 -9 -3 -44 -15 -77 -12 -34 -22 -70 -23 -81 -1 -27
-121 -258 -136 -263 -18 -5 -16 33 7 136 22 99 35 139 79 235 27 57 35 67 56
67 15 0 28 -7 32 -17z m-1211 -44 c11 -19 -14 -32 -72 -37 -50 -4 -56 -3 -52
14 5 28 108 48 124 23z m135 -159 c26 -14 24 -30 -15 -137 -37 -102 -60 -143
-80 -143 -19 0 -84 50 -144 113 -75 76 -71 90 38 139 88 39 161 49 201 28z
m-155 -272 c35 -36 64 -73 64 -82 0 -48 -69 -14 -117 58 -15 23 -40 56 -55 74
-16 18 -26 37 -23 43 10 15 62 -21 131 -93z m1018 -105 c7 -16 17 -43 21 -61
6 -30 2 -38 -59 -103 -37 -38 -81 -89 -99 -113 -81 -109 -254 -306 -268 -306
-17 0 -69 54 -69 71 0 30 45 69 79 69 26 0 39 14 118 120 48 66 100 126 114
132 29 13 79 114 79 160 0 44 10 58 41 58 21 0 32 -7 43 -27z m-806 -92 c42
-21 340 -299 348 -325 10 -29 -32 -62 -56 -44 -145 107 -400 351 -400 384 0
18 57 11 108 -15z m113 19 c10 -6 19 -16 19 -23 0 -8 13 -26 29 -41 31 -30 31
-56 0 -56 -20 0 -94 61 -110 92 -19 35 18 51 62 28z m1933 -167 c9 -22 -30
-79 -121 -174 -70 -73 -103 -95 -103 -68 0 6 36 57 79 113 121 153 132 163
145 129z m-1179 -773 c0 -8 -10 -16 -22 -18 -18 -3 -23 2 -23 18 0 16 5 21 23
18 12 -2 22 -10 22 -18z m95 -50 c0 -23 -26 -44 -45 -36 -19 7 -19 30 0 50 19
18 45 10 45 -14z"/>
<path d="M10377 12305 c-4 -22 -7 -95 -7 -163 0 -68 -4 -132 -10 -142 -5 -10
-32 -35 -60 -55 -27 -20 -50 -41 -50 -46 0 -22 39 -6 85 35 l50 43 3 154 c2
85 2 168 0 184 -3 28 -4 28 -11 -10z"/>
<path d="M10620 11858 c0 -9 9 -37 20 -62 11 -26 23 -77 27 -114 6 -64 7 -65
16 -32 13 53 12 59 -27 145 -20 44 -36 72 -36 63z"/>
<path d="M10045 11669 c-32 -29 -58 -70 -94 -145 -28 -58 -79 -153 -114 -212
-65 -107 -97 -166 -97 -177 0 -3 6 -5 14 -5 15 0 100 148 204 355 33 66 72
131 87 145 37 34 69 80 55 80 -6 0 -30 -18 -55 -41z"/>
<path d="M10656 11553 c-3 -27 -18 -73 -32 -103 -14 -30 -39 -104 -55 -165
-17 -60 -43 -132 -58 -160 -16 -27 -43 -90 -61 -140 -17 -49 -56 -152 -87
-229 -50 -125 -55 -143 -49 -190 18 -144 25 -234 26 -366 1 -80 6 -156 10
-170 13 -40 11 405 -2 496 -14 98 -1 157 64 294 22 47 49 116 59 154 12 40 32
83 48 101 16 19 34 58 45 101 37 144 58 209 96 289 35 73 38 85 27 108 -17 38
-24 34 -31 -20z"/>
<path d="M9935 11146 c-54 -13 -100 -35 -92 -43 3 -3 32 5 64 17 32 12 87 25
123 30 l65 7 -55 1 c-30 0 -77 -5 -105 -12z"/>
<path d="M10128 11143 c7 -3 16 -2 19 1 4 3 -2 6 -13 5 -11 0 -14 -3 -6 -6z"/>
<path d="M10205 11114 c28 -14 59 -33 70 -42 l20 -17 -20 24 c-21 24 -85 61
-107 61 -7 0 10 -12 37 -26z"/>
<path d="M10360 10976 c0 -2 8 -10 18 -17 15 -13 16 -12 3 4 -13 16 -21 21
-21 13z"/>
<path d="M9596 10913 c-24 -77 -35 -368 -16 -447 9 -40 34 -75 46 -63 4 3 -1
25 -11 49 -24 60 -31 233 -15 363 12 97 10 143 -4 98z"/>
<path d="M9882 10539 c-72 -12 -144 -44 -178 -80 -36 -37 -29 -37 41 6 31 19
83 39 114 45 31 6 68 13 84 16 30 6 38 25 10 23 -10 -1 -42 -5 -71 -10z"/>
<path d="M5684 10123 c-3 -16 -12 -44 -19 -63 -21 -52 -23 -63 -50 -230 -14
-85 -50 -245 -81 -355 -31 -110 -57 -222 -58 -250 -1 -44 2 -50 20 -53 14 -2
30 7 46 26 31 37 106 183 143 277 15 39 33 76 41 84 11 12 14 11 22 -10 5 -13
13 -67 16 -119 14 -190 33 -251 104 -337 40 -50 64 -58 32 -10 -46 69 -89 171
-101 240 -14 85 -7 463 9 479 14 14 19 4 57 -130 18 -64 43 -138 54 -165 11
-26 27 -86 35 -133 9 -47 26 -113 40 -147 49 -124 69 -298 51 -438 -6 -52 -5
-57 14 -62 11 -3 24 -13 27 -24 18 -54 28 -73 40 -73 17 0 22 19 29 115 13
170 13 172 67 233 71 80 131 175 188 297 27 59 55 105 63 105 7 0 29 -21 47
-47 19 -26 35 -42 37 -37 2 5 -10 49 -26 97 -26 77 -28 89 -14 94 22 9 45 -8
70 -53 27 -46 76 -191 98 -288 30 -129 94 -256 130 -256 8 0 22 12 32 28 71
114 128 108 153 -17 29 -143 44 -192 86 -279 25 -52 48 -92 50 -89 3 3 -8 31
-24 63 -37 74 -67 173 -88 294 -9 52 -23 108 -31 123 -22 43 -65 32 -124 -33
-25 -27 -53 -50 -62 -50 -25 0 -63 75 -92 180 -62 227 -80 286 -106 340 -29
61 -51 80 -93 80 -13 0 -38 11 -54 25 -17 14 -34 25 -40 25 -5 0 -27 -19 -49
-43 -29 -31 -44 -59 -52 -98 -20 -88 -51 -178 -92 -267 -47 -102 -75 -142 -99
-142 -20 0 -19 -3 -99 225 -27 77 -72 202 -101 279 -28 76 -62 186 -75 245
-27 123 -42 167 -93 276 -47 102 -66 119 -78 68z"/>
<path d="M9611 10095 c-1 -11 6 -72 14 -136 21 -175 30 -375 16 -383 -6 -4
-16 3 -23 18 -16 37 -23 32 -25 -20 -2 -64 -31 -191 -55 -239 -10 -22 -23 -62
-28 -88 -11 -54 -58 -129 -98 -154 -15 -10 -30 -22 -34 -28 -4 -5 -7 -66 -5
-136 l2 -125 -38 -77 c-21 -43 -60 -103 -86 -135 -35 -42 -49 -69 -53 -100 -4
-23 -2 -42 2 -42 12 0 81 86 128 158 57 88 82 169 92 291 6 81 12 108 25 117
25 18 134 28 169 15 21 -9 32 -8 42 0 8 6 44 14 80 17 64 5 66 6 40 19 -32 17
-33 41 -4 78 l21 27 -22 18 c-30 22 -70 103 -77 156 -9 57 8 69 112 85 91 13
139 37 118 59 -9 9 -32 8 -93 -1 -70 -11 -84 -11 -91 2 -12 19 7 46 59 86 50
39 106 56 181 55 74 0 125 -23 177 -79 24 -25 43 -41 43 -35 0 20 -121 121
-158 131 -54 16 -142 13 -193 -4 -25 -9 -67 -33 -93 -55 -27 -22 -52 -40 -57
-40 -11 0 -16 24 -29 150 -12 116 -49 389 -55 405 -2 6 -4 1 -4 -10z"/>
<path d="M10410 9285 c0 -6 7 -65 16 -130 23 -175 16 -275 -29 -408 -20 -60
-37 -112 -37 -115 0 -4 21 39 45 95 66 150 73 237 34 468 -10 62 -28 117 -29
90z"/>
<path d="M7557 9239 c-45 -27 -77 -141 -97 -349 -22 -239 -59 -398 -128 -558
-29 -68 -34 -88 -26 -110 14 -40 36 -33 56 18 94 243 154 393 174 432 30 60
73 224 81 308 3 36 10 73 15 83 10 20 47 22 72 4 20 -15 27 -107 46 -627 11
-314 25 -515 40 -567 13 -51 118 -194 150 -205 46 -16 55 -54 52 -223 -2 -134
0 -154 18 -190 15 -30 20 -59 20 -123 0 -46 4 -81 9 -78 15 10 20 111 10 237
-27 363 -31 381 -99 424 -53 33 -130 137 -130 175 0 37 55 137 79 145 27 8 63
50 91 108 51 105 83 59 56 -79 -10 -53 -13 -91 -8 -102 5 -9 13 -35 17 -56 l7
-40 29 61 c41 85 169 201 169 152 0 -6 -24 -39 -54 -72 -66 -77 -74 -91 -74
-144 -1 -50 6 -53 38 -18 36 38 56 32 66 -17 8 -38 13 -43 39 -46 17 -2 37
-10 46 -18 15 -13 20 -10 52 33 59 79 198 203 229 203 10 0 106 -103 151 -162
22 -29 62 -98 88 -153 27 -55 49 -97 49 -94 0 9 -143 422 -169 487 -38 95 -25
120 86 160 33 12 70 34 84 48 l24 27 -58 -8 c-67 -8 -81 -13 -197 -77 -47 -25
-99 -49 -116 -52 -16 -4 -55 -27 -84 -51 -81 -66 -79 -68 -120 80 -12 44 -26
85 -32 92 -16 20 -38 15 -38 -7 0 -33 -137 -157 -163 -147 -8 3 -17 24 -20 47
-6 48 -14 59 -47 65 -13 2 -33 14 -46 25 -25 24 -25 24 -54 -53 -15 -39 -33
-66 -60 -87 -42 -34 -55 -37 -63 -15 -8 19 -24 286 -37 598 -12 284 -19 329
-60 414 -47 96 -108 134 -163 102z m1153 -1182 c22 -55 40 -103 40 -108 0 -24
-41 -4 -85 41 -47 48 -77 61 -90 40 -4 -6 -21 -16 -38 -24 -18 -7 -54 -32 -82
-55 -27 -22 -55 -41 -62 -41 -29 0 -9 35 64 111 79 83 163 141 196 137 12 -2
30 -33 57 -101z m-390 -20 c0 -15 -86 -100 -117 -116 -34 -17 -30 7 7 54 54
67 110 99 110 62z"/>
<path d="M5132 8967 c-40 -131 -48 -165 -35 -152 6 6 22 48 36 95 13 47 29
100 35 117 6 18 7 35 3 38 -5 2 -22 -42 -39 -98z"/>
<path d="M9848 9043 c6 -2 18 -2 25 0 6 3 1 5 -13 5 -14 0 -19 -2 -12 -5z"/>
<path d="M9905 9030 c11 -5 27 -9 35 -9 9 0 8 4 -5 9 -11 5 -27 9 -35 9 -9 0
-8 -4 5 -9z"/>
<path d="M1915 8831 c-3 -6 1 -48 11 -94 29 -144 11 -298 -66 -548 -22 -72
-40 -132 -40 -134 0 -2 -9 -12 -19 -22 -19 -18 -23 -41 -37 -224 -7 -99 1
-135 53 -221 18 -31 42 -81 52 -110 17 -50 115 -249 181 -368 17 -30 44 -66
61 -80 22 -18 32 -36 36 -69 5 -36 10 -45 35 -53 18 -7 34 -22 43 -44 11 -26
20 -34 39 -34 23 0 26 4 26 34 0 30 4 35 30 41 43 9 70 -2 70 -30 0 -12 -23
-96 -50 -186 -28 -90 -57 -202 -64 -249 -10 -64 -22 -99 -47 -138 -27 -44 -31
-57 -21 -70 34 -49 43 -72 32 -92 -11 -20 -50 -28 -50 -10 0 24 -18 7 -35 -32
-13 -33 -19 -91 -26 -256 l-8 -213 -71 -89 c-121 -152 -163 -177 -278 -167
-52 5 -84 17 -166 61 -57 29 -120 65 -142 80 -21 14 -55 37 -75 50 -74 50
-247 257 -314 376 l-37 65 -5 160 -6 161 37 81 c67 149 73 325 17 470 -37 95
-62 130 -107 149 -17 7 -63 38 -100 69 -79 63 -138 95 -177 95 -37 0 -35 -28
3 -42 20 -6 32 -19 37 -36 3 -15 19 -43 34 -62 16 -19 54 -66 85 -105 l56 -69
-4 -61 c-2 -33 -16 -100 -30 -150 -14 -49 -47 -178 -73 -286 -46 -189 -47
-198 -36 -267 6 -39 11 -85 11 -102 0 -16 16 -64 36 -104 20 -42 42 -111 51
-158 12 -63 24 -93 49 -127 21 -28 35 -60 40 -90 3 -25 12 -55 19 -66 6 -11
17 -42 24 -70 7 -27 24 -66 39 -86 15 -21 41 -56 57 -79 17 -23 49 -61 71 -84
23 -23 51 -60 62 -82 16 -32 28 -41 64 -51 63 -17 100 -54 97 -98 -4 -45 5
-52 37 -26 15 11 30 21 35 21 17 0 50 -45 59 -81 l10 -37 58 5 c56 5 60 3 232
-85 200 -103 213 -118 133 -148 -26 -9 -77 -37 -114 -61 -51 -34 -74 -43 -107
-43 -35 0 -44 -4 -51 -24 -11 -26 -30 -36 -71 -36 -35 0 -53 -18 -85 -81 -45
-88 -59 -259 -21 -259 8 0 28 24 44 54 40 70 106 106 194 106 35 0 72 7 90 16
30 15 70 15 111 -1 25 -10 21 12 -8 39 -32 30 -32 39 6 70 42 35 69 35 69 -2
0 -32 16 -53 36 -45 9 3 14 20 14 45 0 21 5 60 11 85 10 39 9 50 -5 75 -13 21
-16 39 -11 68 5 32 3 45 -14 66 -27 35 -26 52 3 60 29 7 66 -11 66 -32 0 -8 7
-29 16 -47 22 -42 34 -311 22 -496 l-8 -134 30 -78 c31 -82 37 -123 19 -134
-5 -4 -57 -4 -115 0 -100 7 -108 9 -162 46 -31 22 -60 39 -64 39 -19 0 -4 -27
27 -50 45 -33 49 -47 21 -65 -23 -15 -73 -25 -306 -59 -58 -9 -141 -22 -185
-31 -44 -8 -123 -14 -175 -14 -98 0 -156 14 -191 45 -15 14 -25 16 -47 8 -15
-5 -28 -17 -30 -26 -4 -21 39 -35 152 -49 112 -13 126 -17 126 -34 0 -24 -36
-35 -117 -35 -103 0 -173 19 -314 85 -65 30 -122 55 -127 55 -16 0 -349 224
-496 334 -72 53 -136 95 -144 94 -8 -2 -21 -12 -29 -24 -12 -20 -9 -26 50 -90
35 -38 74 -88 85 -110 12 -23 46 -73 77 -110 30 -38 58 -80 62 -94 11 -47 33
-80 64 -95 17 -9 70 -45 117 -81 48 -35 102 -67 120 -70 17 -3 78 -35 135 -70
56 -36 113 -67 127 -70 41 -9 162 -45 210 -62 33 -12 72 -16 149 -14 108 3
131 -4 131 -39 0 -24 12 -24 34 0 32 36 72 46 114 29 20 -9 93 -23 162 -32
143 -19 305 -58 360 -86 21 -11 87 -35 147 -55 140 -45 253 -118 305 -195 16
-24 17 -24 17 -3 1 11 -19 46 -44 76 -53 66 -57 87 -16 87 63 0 87 -17 109
-78 64 -182 96 -250 118 -261 31 -14 30 -23 -14 -106 -40 -76 -62 -89 -93 -56
-11 11 -32 24 -47 27 -38 9 -81 52 -93 94 -10 32 -19 40 -76 65 -82 35 -106
22 -41 -23 43 -29 128 -115 128 -128 0 -20 -40 -46 -113 -75 -130 -52 -193
-97 -169 -121 19 -19 14 -48 -12 -59 -18 -9 -32 -7 -61 7 -38 18 -39 17 -99
-5 -34 -13 -88 -33 -121 -44 -33 -11 -93 -31 -133 -45 -170 -57 -426 -251
-756 -572 -146 -142 -196 -201 -196 -232 0 -28 16 -22 97 37 42 30 80 55 86
55 6 0 25 -5 43 -12 31 -11 35 -10 57 14 16 17 51 34 98 48 41 12 135 41 209
65 162 52 254 70 431 85 178 15 308 36 344 54 37 20 107 20 210 0 44 -8 129
-19 188 -25 115 -11 178 -26 184 -46 7 -19 -45 -62 -86 -72 -20 -5 -92 -24
-161 -41 -69 -17 -133 -39 -144 -48 -10 -9 -38 -57 -63 -106 -74 -148 -140
-263 -241 -421 -108 -169 -232 -403 -232 -437 1 -26 -4 -30 124 116 43 50 64
66 80 64 20 -3 21 -9 21 -93 -1 -49 -7 -107 -14 -127 -17 -52 -97 -171 -165
-246 -54 -61 -63 -81 -39 -89 6 -2 59 41 119 95 60 55 134 120 164 144 120 96
149 162 170 388 8 92 15 121 33 147 33 47 194 179 256 210 53 26 57 27 205 23
311 -9 343 -7 432 31 58 25 82 41 92 62 7 15 20 27 28 27 54 0 174 -94 174
-136 0 -19 -13 -30 -70 -59 -77 -39 -143 -93 -166 -136 -7 -15 -23 -67 -34
-116 -16 -68 -34 -110 -80 -186 -32 -54 -62 -111 -65 -128 -8 -36 -61 -82
-330 -294 -222 -175 -252 -201 -241 -212 4 -4 36 3 71 16 68 24 85 22 85 -10
0 -31 29 -35 74 -9 23 13 93 63 156 111 152 116 296 186 525 253 34 10 44 19
66 66 15 30 43 107 63 170 42 131 54 159 77 173 18 11 19 11 118 -70 29 -24
57 -43 62 -43 5 0 16 14 24 31 26 49 51 36 123 -66 112 -161 135 -212 167
-380 3 -17 -1 -50 -9 -73 -22 -61 -2 -100 25 -50 20 36 15 155 -9 262 -21 90
-22 101 -8 115 15 14 18 14 32 -1 9 -8 19 -40 24 -69 7 -52 8 -53 15 -22 4 18
14 38 21 44 12 10 12 14 -1 29 -13 14 -13 39 -5 186 6 93 15 219 20 279 14
151 13 342 -1 351 -22 13 -29 -24 -29 -167 0 -189 -19 -556 -31 -586 -11 -29
-35 -30 -50 -1 -9 17 -10 85 -3 278 12 363 11 533 -2 537 -17 6 -24 -105 -24
-407 0 -292 -4 -349 -27 -357 -18 -7 -79 51 -104 99 -24 47 -24 89 1 353 11
116 20 249 19 298 -1 56 3 93 11 102 17 21 69 19 121 -4 24 -11 66 -23 94 -27
37 -5 57 -15 78 -37 29 -31 42 -32 31 -3 -7 19 -54 46 -79 46 -9 0 -32 16 -52
35 -29 28 -44 35 -75 35 -47 0 -58 20 -34 60 9 16 16 40 16 54 0 41 -27 96
-46 96 -28 0 -91 75 -110 132 -14 40 -18 84 -19 175 0 68 -2 123 -4 123 -3 0
-13 -8 -24 -17 -18 -17 -19 -17 -33 2 -8 10 -14 34 -14 53 0 29 -9 43 -55 87
-30 29 -55 60 -55 68 0 32 -20 71 -31 60 -19 -19 8 -82 55 -133 54 -58 62 -85
47 -156 -9 -41 -10 -58 0 -75 l11 -22 19 24 c22 29 37 19 50 -37 19 -84 19
-84 -158 -320 -96 -128 -174 -224 -184 -224 -8 0 -26 11 -39 25 l-24 26 19 36
c29 54 97 144 192 257 46 54 82 100 79 103 -19 19 -147 -118 -245 -261 -50
-74 -78 -106 -89 -104 -52 10 -8 110 159 359 111 166 161 250 154 258 -11 10
-68 -63 -156 -199 -232 -358 -227 -352 -255 -316 -25 34 -16 73 46 193 71 138
168 285 240 366 29 32 50 61 47 64 -4 3 -36 -23 -73 -58 -73 -71 -142 -171
-227 -330 -62 -117 -83 -142 -98 -118 -12 19 -2 82 25 149 31 77 139 247 208
327 32 36 58 70 58 75 0 16 -23 8 -60 -22 -44 -35 -75 -38 -90 -11 -16 31 -12
48 18 82 26 29 35 32 125 42 l97 10 -6 36 c-4 27 2 58 26 121 51 132 64 147
210 239 142 89 234 139 291 156 164 52 226 82 329 160 80 61 170 144 170 157
0 29 -86 -9 -241 -107 -65 -41 -205 -119 -311 -173 -106 -54 -223 -117 -260
-141 -61 -38 -71 -42 -110 -36 -38 6 -50 2 -102 -29 -33 -20 -75 -39 -95 -42
-65 -12 -112 -47 -156 -116 -14 -23 -15 -35 -6 -79 6 -28 20 -64 31 -79 11
-16 20 -35 20 -45 0 -20 -47 -65 -68 -65 -9 0 -35 -10 -59 -21 -40 -19 -46
-20 -61 -6 -9 9 -35 17 -57 19 -57 4 -56 26 4 107 28 38 51 71 51 74 0 12 -66
-6 -106 -29 -23 -13 -95 -75 -159 -139 -111 -109 -145 -133 -145 -101 0 23
147 224 266 364 48 56 21 56 -32 -1 -47 -49 -159 -184 -228 -275 -49 -65 -70
-76 -81 -42 -12 37 99 215 244 391 29 36 39 55 30 58 -18 6 -84 -70 -197 -227
-53 -74 -107 -141 -119 -150 -21 -13 -23 -13 -30 4 -9 24 37 109 123 224 38
52 82 120 97 150 14 30 49 80 77 112 54 61 58 68 35 68 -8 0 -29 -18 -47 -40
-22 -28 -39 -40 -53 -38 -54 8 -3 99 79 139 22 10 85 26 139 35 54 9 124 24
154 35 76 26 94 24 129 -12 16 -17 43 -38 59 -46 17 -9 51 -34 78 -55 42 -35
52 -39 82 -34 46 9 44 22 -3 30 -44 7 -112 55 -189 135 l-53 54 -49 -23 c-32
-14 -59 -21 -78 -17 -17 3 -34 0 -44 -9 -23 -20 -74 -34 -90 -23 -10 6 -15 51
-20 171 -6 134 -12 177 -33 242 -30 96 -24 111 38 102 35 -6 46 -2 93 30 29
20 67 39 85 43 17 4 33 11 35 18 2 6 -27 34 -64 64 -112 87 -221 199 -272 279
-53 83 -65 94 -98 103 -31 7 -37 -7 -18 -42 8 -17 15 -53 15 -80 0 -28 8 -67
17 -87 17 -34 20 -36 56 -31 35 5 40 2 75 -43 20 -26 63 -77 95 -112 79 -89
77 -96 -25 -91 -108 6 -181 24 -267 68 -53 26 -72 42 -77 61 -8 32 2 107 27
208 19 75 19 107 -1 76 -14 -22 -40 -115 -52 -184 -6 -34 -15 -67 -20 -73 -15
-19 -42 -16 -63 7 -30 33 -29 103 0 215 15 55 29 112 32 128 6 30 -7 36 -27
12 -7 -8 -21 -15 -31 -15 -25 0 -25 39 1 115 36 105 18 113 -30 12 -27 -57
-62 -72 -68 -29 -4 27 70 169 117 224 33 39 36 56 7 45 -8 -3 -46 -52 -84
-109 -38 -57 -76 -109 -85 -117 -19 -15 -37 -7 -37 18 0 22 67 160 117 242 83
134 123 206 123 219 0 7 -7 21 -16 31 -14 16 -14 20 1 51 41 80 73 86 182 34
56 -27 74 -41 79 -61 5 -20 9 -23 20 -14 41 34 9 99 -49 99 -20 0 -38 10 -60
36 -18 20 -66 53 -108 74 -105 53 -104 52 -90 163 19 141 28 268 20 273 -9 5
-17 -39 -29 -180 -6 -65 -15 -129 -21 -142 -11 -31 -34 -40 -56 -23 -14 12
-15 35 -10 199 4 102 10 213 13 248 5 41 3 62 -4 62 -10 0 -12 -15 -32 -255
-14 -165 -19 -195 -35 -195 -8 0 -21 7 -29 16 -22 22 -21 96 9 369 14 127 25
258 25 292 l0 62 -32 3 -33 3 3 73 c4 103 -15 90 -23 -15 -11 -143 -35 -346
-50 -428 -8 -42 -14 -100 -14 -128 1 -29 4 -41 6 -27 2 14 20 124 40 245 35
220 46 261 64 250 23 -15 -13 -591 -39 -617 -9 -9 -17 -7 -37 12 -14 13 -25
29 -25 37 0 29 -17 10 -26 -29 -7 -33 -14 -43 -29 -43 -19 0 -20 8 -23 105 -3
101 2 173 34 435 25 208 46 339 55 357 26 48 75 4 154 -140 102 -185 156 -242
225 -242 33 0 70 -15 82 -34 4 -6 8 -29 9 -51 1 -35 3 -31 16 30 8 39 29 95
46 125 30 52 32 60 32 160 0 97 -2 109 -28 152 -50 86 -63 78 -47 -28 7 -46 9
-108 5 -156 -8 -93 -22 -106 -96 -91 -42 8 -44 10 -47 46 -3 30 -6 36 -16 28
-10 -9 -22 -1 -50 33 -20 24 -36 52 -36 61 0 23 -57 152 -86 195 -18 26 -32
35 -55 36 -42 2 -79 39 -79 80 0 23 -5 33 -20 37 -26 7 -27 56 -3 164 15 70
27 93 116 226 70 104 104 147 118 147 25 0 24 -18 -7 -87 -73 -161 -112 -253
-108 -253 3 0 49 82 98 178 58 115 128 231 142 236 24 9 54 -12 54 -39 0 -14
-39 -113 -86 -221 -47 -107 -83 -198 -80 -201 3 -4 6 -2 6 4 0 6 16 30 35 53
19 23 41 64 49 91 8 27 33 91 54 142 21 50 42 100 45 110 9 23 48 22 97 -3 37
-19 40 -23 40 -63 0 -23 -5 -62 -11 -86 -5 -24 -8 -45 -6 -48 5 -4 57 199 57
222 0 15 -2 15 -15 1 -12 -11 -22 -13 -43 -5 -43 15 -102 74 -102 103 0 19 -4
23 -19 19 -22 -6 -76 20 -89 43 -6 11 -5 35 4 68 18 66 17 69 -7 24 -22 -44
-50 -49 -73 -16 -29 41 -20 91 37 201 66 127 107 189 121 184 12 -4 14 -54 3
-107 -6 -29 -4 -26 14 15 11 27 25 55 31 62 15 18 63 16 101 -3 60 -31 62 -60
9 -112 -30 -29 -45 -56 -67 -125 -15 -48 -26 -90 -23 -93 3 -3 18 31 33 75 33
99 58 133 94 129 25 -3 26 -7 34 -78 10 -98 11 -157 2 -198 -5 -22 -3 -42 6
-59 11 -20 18 -24 42 -19 25 5 35 0 64 -30 67 -72 92 -156 94 -317 1 -129 -23
-164 -223 -319 -101 -78 -127 -110 -108 -133 18 -21 27 -19 34 9 3 14 41 55
84 93 124 110 175 166 207 229 27 53 29 68 28 149 -1 147 -15 193 -86 285
-100 130 -97 121 -59 174 l33 46 -23 9 c-23 9 -23 10 -22 171 1 131 4 165 16
174 87 66 88 80 2 36 -63 -33 -94 -32 -94 2 0 27 75 138 145 216 32 35 55 65
52 69 -11 10 -74 -50 -157 -149 -44 -54 -85 -98 -90 -98 -46 0 71 185 210 333
34 37 60 70 57 74 -10 9 -142 -123 -210 -211 -91 -118 -122 -150 -135 -142
-36 22 3 91 191 339 66 88 87 123 87 147 0 35 -17 45 -56 36 -32 -8 -150 -128
-199 -201 -19 -30 -40 -57 -45 -60 -16 -10 -140 -270 -140 -294 0 -12 10 -35
22 -52 l22 -29 -53 -104 c-60 -117 -104 -176 -131 -176 -9 0 -34 7 -53 15 -20
8 -51 15 -69 15 -18 0 -48 9 -66 20 -18 11 -49 20 -68 20 -31 0 -44 9 -101 68
-91 95 -155 194 -181 282 -13 41 -36 113 -53 159 -16 45 -29 102 -29 125 0 48
47 226 87 329 26 66 26 69 10 120 -9 29 -21 81 -27 115 -24 137 -73 247 -95
213z m1185 -634 c0 -26 -19 -57 -63 -104 -62 -66 -80 -18 -22 56 57 71 85 87
85 48z m-1174 -281 c36 -76 41 -111 14 -111 -19 0 -94 149 -86 170 13 34 38
13 72 -59z m151 -443 c20 -50 30 -197 13 -208 -6 -4 -16 -3 -22 3 -14 14 -48
152 -48 200 0 36 3 42 21 42 14 0 25 -11 36 -37z m253 -237 c0 -8 -5 -18 -11
-22 -14 -8 -33 11 -25 25 10 16 36 13 36 -3z m-37 -129 c-2 -39 -37 -145 -53
-161 -7 -7 -14 -6 -21 1 -12 12 13 127 38 176 19 38 39 29 36 -16z m155 -110
c5 -23 -24 -67 -43 -67 -19 0 -21 60 -3 78 17 17 42 11 46 -11z m-1424 -59
c20 -28 21 -68 2 -68 -14 0 -76 64 -76 78 0 5 5 13 12 20 14 14 41 1 62 -30z
m1444 -65 c-5 -25 -28 -28 -28 -4 0 12 6 21 16 21 9 0 14 -7 12 -17z m-1383
-236 c0 -63 -3 -119 -7 -122 -4 -4 -15 -5 -24 -1 -14 5 -16 21 -12 114 3 108
10 136 31 129 8 -3 12 -41 12 -120z m1172 -861 c-6 -125 -11 -146 -38 -146
-23 0 -25 42 -8 153 14 89 25 120 40 111 8 -5 10 -41 6 -118z m-996 -141 c44
-28 58 -50 41 -67 -17 -17 -60 6 -68 37 -3 14 -12 25 -20 25 -8 0 -14 7 -14
15 0 21 14 19 61 -10z m217 -193 c2 -7 -3 -12 -12 -12 -9 0 -16 7 -16 16 0 17
22 14 28 -4z m719 -78 c3 -8 -1 -23 -10 -32 -15 -14 -17 -14 -23 1 -8 21 1 47
16 47 6 0 13 -7 17 -16z m-182 -29 c0 -11 -12 -26 -27 -35 -25 -13 -29 -13
-45 2 -16 16 -16 19 2 38 24 27 70 24 70 -5z m269 -193 c7 -26 6 -36 -6 -49
-24 -23 -38 -7 -38 43 0 38 3 45 17 42 10 -2 22 -18 27 -36z m-804 -117 c0
-40 -4 -55 -14 -55 -15 0 -26 30 -26 71 0 29 7 39 27 39 9 0 13 -16 13 -55z
m1156 -70 c6 -16 -33 -91 -131 -250 -34 -55 -85 -141 -114 -192 -29 -51 -55
-94 -59 -97 -4 -2 -24 -7 -44 -11 -34 -7 -39 -5 -48 19 -5 14 -16 26 -25 26
-20 0 -19 19 1 27 12 4 15 17 12 52 l-3 46 40 0 c39 0 40 1 53 45 70 237 105
315 140 308 27 -5 26 -52 -4 -120 -127 -301 -124 -323 8 -56 94 189 113 215
156 217 7 1 15 -6 18 -14z m-844 -157 c-9 -9 -12 -7 -12 12 0 19 3 21 12 12 9
-9 9 -15 0 -24z m503 -78 c0 -13 -5 -25 -11 -27 -14 -5 -25 22 -17 42 8 23 28
12 28 -15z m-75 -38 c0 -32 -16 -52 -42 -52 -12 0 -18 7 -18 21 0 32 19 59 40
59 15 0 20 -7 20 -28z m-342 -320 c5 -17 -53 -72 -77 -72 -30 0 -26 17 14 57
34 34 55 39 63 15z m-250 -10 c2 -6 -7 -22 -21 -36 -17 -17 -23 -32 -20 -53 5
-31 -27 -71 -46 -58 -17 10 -13 50 8 69 10 9 17 25 14 34 -2 9 6 27 17 40 22
23 41 25 48 4z m945 -263 c14 -23 -11 -184 -33 -211 -17 -21 -19 -21 -43 -5
-14 9 -28 25 -32 36 -6 20 38 164 58 189 13 16 37 12 50 -9z m-102 -38 c-7
-11 -16 -21 -20 -21 -15 0 -21 31 -10 52 10 18 13 19 26 5 12 -11 13 -19 4
-36z m-125 -49 c11 -34 33 -80 48 -102 29 -44 27 -67 -5 -50 -25 14 -35 7 -42
-30 -8 -39 -31 -39 -68 1 -51 55 -49 105 4 91 16 -4 19 -2 14 12 -23 60 -13
153 15 144 7 -3 22 -32 34 -66z m118 -188 c12 -5 16 -20 16 -63 0 -59 -11 -88
-28 -77 -15 9 -54 117 -48 133 6 14 34 17 60 7z m165 -99 c20 -27 51 -142 51
-192 0 -33 -16 -53 -42 -53 -30 0 -87 160 -88 243 0 23 4 27 29 27 20 0 36 -9
50 -25z m-551 -35 l62 -29 0 -89 c0 -115 -5 -120 -98 -103 -37 7 -148 39 -246
73 -201 67 -223 69 -334 28 -72 -27 -115 -20 -120 17 -5 32 35 41 368 83 47 6
119 19 160 29 106 27 136 25 208 -9z m322 5 c20 -25 8 -50 -25 -50 -21 0 -31
5 -33 18 -4 21 14 47 33 47 7 0 18 -7 25 -15z m379 -15 c36 -19 76 -145 136
-433 25 -119 26 -129 11 -150 -9 -12 -27 -39 -41 -59 -27 -40 -45 -47 -65 -23
-17 21 -58 233 -65 343 -4 54 -15 124 -25 158 -28 94 -35 155 -19 165 18 11
46 11 68 -1z m194 -121 c46 -80 65 -165 74 -326 4 -92 3 -126 -7 -138 -16 -19
-44 -19 -59 -1 -13 15 -101 459 -101 507 0 27 3 30 27 27 22 -2 35 -16 66 -69z
m-546 28 c24 -24 150 -494 140 -521 -11 -29 -33 -16 -55 32 -33 74 -109 274
-116 307 -4 17 -13 44 -20 60 -59 127 -58 151 2 140 20 -3 42 -12 49 -18z
m107 1 c22 -36 121 -348 171 -539 l45 -174 -37 -37 c-20 -21 -45 -38 -55 -38
-34 0 -79 121 -58 160 9 16 0 70 -45 271 -31 138 -60 261 -65 275 -11 29 -13
88 -3 97 13 13 33 7 47 -15z m-914 -102 c0 -21 -13 -26 -45 -18 -46 13 -43 32
4 32 29 0 41 -4 41 -14z m738 -78 c7 -7 12 -22 12 -35 0 -17 -6 -23 -23 -23
-27 0 -47 17 -47 41 0 27 37 38 58 17z m360 -60 c7 -7 12 -23 12 -36 0 -14 16
-91 35 -173 41 -175 44 -219 15 -219 -24 0 -35 21 -44 83 -4 27 -21 102 -37
168 -29 120 -35 170 -22 182 10 11 28 8 41 -5z m-1648 -23 c0 -8 -6 -15 -14
-15 -17 0 -28 14 -19 24 12 12 33 6 33 -9z m1319 -51 c60 -76 10 -115 -65 -51
-22 19 -26 29 -20 50 9 37 56 38 85 1z m1091 -563 c0 -10 -13 -34 -29 -54 -15
-20 -34 -50 -41 -67 -16 -39 -34 -34 -38 11 -2 29 4 43 38 82 44 49 70 60 70
28z m34 -211 c13 -13 -3 -30 -28 -30 -25 0 -46 17 -46 38 0 10 8 12 33 7 17
-4 36 -11 41 -15z m-470 -186 c31 -12 15 -43 -49 -94 -35 -28 -78 -69 -96 -91
-40 -50 -67 -49 -92 4 -24 49 -16 82 26 103 17 9 49 32 70 50 30 28 45 34 81
34 24 0 51 -3 60 -6z m-514 -36 c0 -16 -41 -58 -57 -58 -17 0 -16 21 3 48 16
23 54 30 54 10z m765 2 c9 -14 -7 -39 -88 -143 -40 -51 -94 -129 -120 -174
-53 -91 -68 -106 -94 -101 -33 6 -27 53 18 137 65 123 131 205 193 240 30 17
57 35 61 41 8 13 22 13 30 0z m-175 -41 c0 -6 -22 -41 -48 -78 -27 -36 -64
-92 -82 -123 -38 -64 -66 -81 -87 -52 -21 29 -15 58 20 110 62 89 197 187 197
143z m250 1 c0 -31 -137 -270 -155 -270 -17 0 -37 49 -29 74 24 76 184 247
184 196z m-1450 -98 c0 -10 -5 -23 -12 -30 -13 -13 -48 -16 -48 -4 0 16 32 52
46 52 8 0 14 -8 14 -18z m818 -59 c3 -22 -28 -63 -48 -63 -11 0 -14 49 -4 75
9 24 48 15 52 -12z m-152 -10 c-3 -8 -6 -17 -6 -19 0 -2 -6 -4 -14 -4 -21 0
-30 19 -16 35 14 17 43 8 36 -12z m-491 -83 c10 -16 -16 -43 -28 -31 -11 11
-2 41 12 41 5 0 13 -5 16 -10z m703 -33 c16 -33 8 -64 -19 -72 -20 -7 -49 9
-49 27 0 5 7 25 15 44 17 40 34 40 53 1z m-1062 8 c9 -21 -14 -45 -64 -67 -50
-23 -85 -16 -80 14 3 21 6 24 68 51 45 20 69 21 76 2z m624 -14 c0 -10 -9 -29
-20 -42 -16 -20 -21 -22 -29 -10 -6 10 -5 24 5 43 16 32 44 38 44 9z m288 8
c-2 -6 -8 -10 -13 -10 -5 0 -11 4 -13 10 -2 6 4 11 13 11 9 0 15 -5 13 -11z
m-788 -14 c0 -8 -7 -15 -15 -15 -8 0 -15 7 -15 15 0 8 7 15 15 15 8 0 15 -7
15 -15z m-292 -47 c7 -7 12 -16 12 -20 0 -10 -75 -48 -95 -48 -24 0 -17 37 11
59 30 24 54 27 72 9z m982 -18 c0 -23 -26 -38 -41 -23 -14 14 0 43 22 43 12 0
19 -7 19 -20z m1338 -79 c73 -139 73 -197 -1 -226 -23 -9 -65 -34 -92 -54 -28
-21 -64 -45 -80 -54 -17 -8 -48 -29 -70 -47 -31 -25 -39 -37 -37 -59 4 -31
-20 -56 -43 -47 -21 8 -19 42 4 65 19 19 19 20 0 37 -31 28 -22 58 39 141 32
43 76 107 97 143 66 111 115 180 129 180 7 0 32 -36 54 -79z m-1828 51 c22 -5
36 -15 38 -26 7 -35 -43 -50 -208 -66 -224 -21 -326 -40 -432 -80 -118 -44
-180 -54 -186 -29 -4 22 141 97 323 166 l140 53 145 -5 c80 -3 161 -9 180 -13z
m237 2 c3 -8 1 -20 -6 -27 -14 -14 -47 15 -37 32 10 16 36 13 43 -5z m386 9
c9 -9 -13 -34 -24 -27 -14 8 -11 34 4 34 8 0 17 -3 20 -7z m-104 -57 c25 -6
47 -17 49 -25 4 -11 -10 -13 -77 -9 -85 5 -108 15 -97 43 6 17 27 15 125 -9z
m277 -1 c9 -14 14 -32 10 -40 -13 -34 -106 -3 -106 35 0 38 72 41 96 5z m35
-115 c23 -13 25 -46 3 -54 -28 -11 -70 -6 -90 9 -19 15 -19 15 5 35 26 22 52
25 82 10z m64 -125 c0 -13 -8 -21 -23 -23 -14 -2 -32 -17 -44 -38 -28 -47 -48
-45 -48 6 0 38 -2 40 -29 40 -31 0 -47 13 -36 30 3 5 45 8 93 7 79 -3 87 -5
87 -22z m33 -82 c3 -34 -19 -59 -44 -49 -12 5 -14 13 -9 34 14 58 48 68 53 15z
m141 -30 c-15 -18 -34 -1 -25 22 5 14 9 15 21 5 12 -10 13 -16 4 -27z m752
-15 c9 -22 10 -81 5 -236 -12 -346 -24 -415 -66 -364 -58 70 -72 182 -46 367
8 55 17 135 21 178 8 80 19 99 56 90 9 -3 23 -18 30 -35z m-123 -82 c4 -50
-27 -267 -40 -283 -27 -33 -73 37 -88 134 -9 56 -9 58 20 88 17 17 30 36 30
42 0 20 42 64 59 61 11 -2 17 -16 19 -42z m-518 -15 c0 -20 -35 -51 -57 -51
-18 0 -16 30 4 52 22 24 53 24 53 -1z m-424 -45 c7 -19 -13 -56 -31 -56 -18 0
-20 41 -3 58 16 16 27 15 34 -2z m227 -22 c9 -10 -4 -34 -19 -34 -8 0 -14 9
-14 20 0 19 19 27 33 14z m-607 -16 c9 -14 -59 -76 -93 -84 -24 -6 -53 10 -53
30 0 24 20 38 71 51 71 17 67 17 75 3z m1249 -247 c13 -27 21 -51 18 -55 -24
-23 -73 23 -73 69 0 61 19 56 55 -14z m-1585 -70 c0 -39 -20 -68 -40 -56 -24
15 -3 95 25 95 11 0 15 -11 15 -39z m1428 -78 c-2 -30 -7 -38 -23 -38 -24 0
-33 38 -15 61 24 28 41 17 38 -23z m-1532 2 c11 -27 -5 -62 -43 -99 -63 -61
-96 -40 -52 34 43 72 82 99 95 65z m1354 -58 c0 -27 -17 -47 -41 -47 -28 0
-30 15 -8 44 25 32 49 34 49 3z m-70 -131 c-17 -21 -36 -20 -44 1 -10 26 23
48 43 29 12 -12 12 -18 1 -30z m-1125 -27 c4 -6 0 -30 -10 -54 -24 -65 -115
-140 -115 -95 0 5 14 33 32 62 17 29 38 63 45 76 14 23 37 29 48 11z m1070
-130 c9 -14 -71 -89 -95 -89 -32 0 -23 26 22 64 43 37 62 44 73 25z m-265
-164 c0 -8 -4 -15 -9 -15 -13 0 -22 16 -14 24 11 11 23 6 23 -9z"/>
<path d="M5759 8664 c-27 -31 -130 -235 -124 -245 12 -19 35 -8 40 19 4 15 10
35 15 44 61 112 90 174 88 186 -2 11 -7 10 -19 -4z"/>
<path d="M3587 8646 c-78 -28 -151 -83 -246 -184 -105 -113 -149 -178 -138
-206 6 -16 15 -17 63 -11 88 11 151 -2 193 -40 63 -56 311 -215 337 -215 53 0
13 39 -149 143 -64 42 -122 87 -128 99 -7 18 -5 46 10 116 25 109 25 108 7 93
-7 -6 -21 -39 -31 -74 -20 -71 -30 -87 -56 -87 -25 0 -24 18 6 93 14 34 29 82
32 107 3 25 10 51 16 58 13 17 100 15 144 -3 100 -42 131 7 52 81 -43 40 -65
46 -112 30z m-121 -160 c11 -29 -57 -153 -77 -140 -12 7 -11 51 1 59 6 3 10
16 10 28 0 47 52 88 66 53z"/>
<path d="M9385 8551 c-20 -28 -64 -76 -98 -106 -49 -43 -58 -55 -41 -55 36 0
200 187 181 206 -3 3 -21 -18 -42 -45z"/>
<path d="M10310 8493 c-18 -54 -48 -126 -66 -160 -20 -35 -36 -82 -39 -110 -6
-48 -6 -48 9 -18 51 105 81 183 106 275 16 58 27 106 25 108 -1 2 -17 -41 -35
-95z"/>
<path d="M5807 8504 c-30 -71 -32 -84 -17 -84 13 0 60 97 60 122 0 39 -19 23
-43 -38z"/>
<path d="M7042 8462 c-6 -5 -27 -53 -46 -108 -40 -119 -93 -240 -152 -350 -43
-78 -54 -114 -35 -114 29 0 113 148 189 335 17 44 36 86 41 94 12 19 39 7 45
-21 2 -13 12 -63 21 -113 16 -89 35 -135 56 -135 7 0 9 17 5 48 -3 26 -11 114
-16 196 -6 82 -15 155 -21 163 -12 14 -67 17 -87 5z"/>
<path d="M3622 8272 c5 -65 23 -96 61 -105 12 -2 40 -12 62 -22 36 -16 38 -16
25 0 -7 9 -30 25 -49 35 -52 26 -69 49 -73 99 -2 27 -9 46 -17 49 -11 4 -13
-8 -9 -56z"/>
<path d="M9480 8252 c22 -46 62 -134 87 -195 25 -62 63 -147 85 -190 29 -58
43 -104 55 -178 19 -115 12 -156 -25 -152 -19 2 -22 -2 -22 -32 0 -20 7 -46
16 -60 12 -18 13 -28 4 -44 -24 -47 13 -15 106 87 212 234 329 398 349 490 12
56 -14 37 -46 -35 -36 -80 -66 -124 -212 -305 -127 -160 -154 -175 -143 -83 7
63 -21 210 -52 272 -11 21 -33 72 -50 113 -50 127 -162 364 -179 380 -8 8 4
-23 27 -68z"/>
<path d="M9080 8281 c0 -5 20 -21 45 -35 25 -15 45 -34 45 -42 0 -12 7 -14 33
-9 17 4 36 11 40 15 11 10 -45 44 -106 64 -56 19 -57 19 -57 7z"/>
<path d="M9280 8281 c0 -6 34 -33 75 -62 80 -55 88 -66 155 -232 18 -43 34
-77 36 -75 4 4 -67 182 -89 224 -22 42 -145 154 -168 154 -5 0 -9 -4 -9 -9z"/>
<path d="M9576 7855 c10 -16 31 -55 46 -85 15 -30 28 -49 28 -42 0 18 -45 102
-71 132 l-21 25 18 -30z"/>
<path d="M6562 7795 c-85 -35 -112 -51 -112 -66 0 -18 60 -8 87 15 15 13 49
32 74 43 47 21 71 43 47 43 -7 0 -51 -16 -96 -35z"/>
<path d="M5228 7740 c-25 -19 -64 -97 -54 -107 3 -3 13 13 22 36 34 85 92 98
127 28 34 -68 2 -125 -76 -137 l-42 -6 27 -14 c87 -42 187 131 115 198 -30 28
-85 29 -119 2z"/>
<path d="M3262 7687 c-41 -52 -72 -114 -72 -139 0 -7 9 6 20 29 10 23 37 69
60 102 22 34 39 61 37 61 -3 0 -23 -24 -45 -53z"/>
<path d="M8348 7578 c134 -221 140 -234 127 -265 -16 -37 -15 -107 2 -133 9
-14 81 -91 160 -171 91 -94 143 -154 143 -167 0 -12 11 -56 25 -99 31 -97 31
-114 0 -166 -13 -23 -36 -74 -50 -112 -16 -41 -42 -86 -64 -110 -20 -22 -54
-65 -74 -95 -53 -78 -133 -163 -146 -155 -6 3 -11 39 -11 83 0 73 -11 114 -26
100 -3 -4 -14 -92 -24 -196 l-17 -189 -58 -68 c-31 -37 -63 -83 -71 -101 -21
-50 -19 -198 3 -235 14 -24 15 -33 5 -47 -40 -58 -65 -107 -69 -141 -5 -40
-27 -56 -59 -44 -18 7 -18 110 1 393 8 118 15 328 15 467 0 138 4 262 9 275 5
13 41 66 80 118 39 52 94 138 121 190 28 52 56 103 62 112 7 9 9 20 6 24 -18
17 -43 -15 -95 -123 -47 -96 -70 -131 -134 -198 -42 -45 -81 -97 -88 -116 -6
-19 -19 -99 -30 -179 -11 -80 -25 -158 -32 -175 -15 -36 -30 -373 -18 -397 7
-12 38 -305 39 -361 0 -4 -17 -25 -38 -45 -31 -31 -42 -52 -56 -109 -10 -39
-16 -81 -14 -92 6 -43 23 -23 38 45 17 77 38 91 55 37 12 -41 35 -43 35 -4 0
36 17 83 33 93 7 4 22 8 33 8 36 0 64 32 79 89 12 47 23 63 79 113 38 34 70
73 77 93 14 39 32 49 59 35 26 -14 36 -73 19 -117 -17 -43 -35 -52 -44 -24 -8
27 -21 27 -29 -1 -11 -41 -6 -172 9 -235 8 -33 31 -100 50 -148 48 -116 46
-128 -28 -136 -33 -4 -66 -14 -75 -23 -24 -23 -11 -27 37 -10 34 12 51 12 78
3 44 -14 59 -40 71 -117 10 -70 2 -85 -39 -75 -22 5 -23 4 -9 -11 9 -9 40 -28
70 -43 69 -35 113 -103 130 -201 16 -90 10 -197 -10 -197 -11 0 -17 17 -22 64
-4 36 -14 71 -23 80 -13 14 -20 13 -70 -3 -67 -23 -85 -42 -92 -95 -10 -77 38
-141 105 -141 20 0 43 7 53 16 26 23 45 12 52 -31 10 -62 -13 -83 -57 -50 -11
8 -25 15 -32 15 -7 0 -41 -36 -75 -80 -34 -44 -67 -80 -74 -80 -7 0 -23 25
-35 55 -12 30 -49 92 -82 138 -33 45 -66 94 -74 110 -8 15 -21 27 -29 27 -29
0 -12 -187 40 -422 27 -128 31 -173 14 -184 -15 -9 -31 9 -43 48 -6 18 -22 38
-36 45 -32 16 -232 16 -280 0 -43 -15 -61 -49 -53 -99 4 -29 2 -39 -11 -44
-45 -17 -126 90 -126 167 0 37 -5 50 -22 61 -24 16 -21 42 12 97 20 31 24 33
62 28 22 -3 63 -19 90 -36 27 -17 54 -31 59 -31 14 0 11 30 -15 120 -14 47
-32 119 -41 160 -10 41 -23 85 -31 97 -20 32 -65 53 -137 64 -79 13 -87 22
-56 56 14 16 33 40 42 55 10 16 29 29 49 33 54 11 68 16 68 25 0 13 -68 30
-119 30 -39 0 -49 -5 -81 -40 -21 -23 -54 -75 -75 -118 -20 -42 -44 -92 -53
-111 -10 -19 -25 -39 -34 -45 -24 -15 -68 11 -75 44 -4 22 -9 26 -31 23 -22
-3 -42 10 -99 62 -50 45 -73 74 -73 89 0 27 103 144 146 166 16 8 49 35 74 60
25 25 61 58 80 72 53 41 22 33 -53 -12 -55 -34 -71 -39 -87 -30 -11 6 -20 17
-20 25 0 19 -48 55 -74 55 -12 0 -27 5 -33 11 -18 18 -57 3 -130 -53 l-68 -51
-55 11 c-61 13 -158 49 -240 90 -43 21 -56 33 -58 53 -3 24 -9 27 -52 33 -41
6 -60 16 -112 62 -75 66 -126 97 -219 135 -39 16 -129 57 -202 92 -141 69
-200 118 -232 193 -18 43 -20 100 -4 110 7 4 40 -25 80 -69 62 -68 78 -79 147
-105 42 -17 91 -33 109 -37 43 -9 209 21 318 57 50 17 117 34 150 39 33 5 74
12 92 15 35 7 26 17 133 -146 57 -87 116 -157 124 -149 7 6 -31 77 -85 162
-33 51 -39 68 -34 95 5 28 1 37 -27 63 -18 16 -44 41 -58 54 -30 30 -56 32
-64 7 -12 -35 -80 -60 -266 -98 -227 -45 -296 -48 -371 -16 -96 42 -103 47
-136 92 -18 25 -51 66 -74 92 -22 26 -47 62 -56 78 -14 30 -14 33 12 71 32 46
42 48 55 14 10 -25 34 -33 45 -15 3 6 15 10 26 10 20 0 214 -94 282 -137 39
-24 43 -25 112 -14 47 8 86 9 113 3 44 -10 84 -4 177 26 69 23 78 41 43 89
-99 136 -129 177 -180 239 -72 90 -138 149 -252 227 -88 60 -204 160 -316 272
-39 38 -63 55 -81 55 -33 0 -44 13 -59 70 -18 67 -65 165 -107 223 -63 88
-124 157 -139 157 -22 0 -16 -28 10 -45 32 -21 100 -119 137 -198 l30 -64 -15
-115 c-18 -131 -22 -145 -47 -158 -32 -18 -131 -12 -167 10 -41 25 -70 25
-102 0 -40 -31 -58 -26 -70 23 -33 128 -76 197 -123 197 -17 0 -14 -6 20 -37
47 -44 83 -131 83 -199 0 -35 -6 -51 -26 -71 -22 -22 -31 -25 -70 -19 -64 8
-100 30 -121 73 -11 25 -33 46 -61 61 -53 29 -74 72 -81 167 -5 61 -8 70 -26
70 -17 0 -21 -9 -26 -50 -4 -28 -14 -65 -23 -83 -22 -43 -7 -95 32 -112 44
-19 114 -58 157 -89 59 -42 121 -71 151 -71 37 0 96 36 116 70 9 17 24 30 32
30 38 0 263 -142 304 -192 7 -9 22 -85 32 -169 25 -197 29 -214 53 -274 26
-65 28 -186 4 -234 -20 -40 -20 -41 -6 -41 6 0 51 -42 99 -93 48 -51 98 -98
111 -104 91 -45 297 -135 363 -158 44 -16 86 -37 95 -48 50 -61 136 -139 207
-189 45 -31 102 -81 127 -110 147 -169 162 -195 112 -186 -38 8 -48 -9 -125
-215 -16 -42 -26 -57 -38 -55 -9 2 -18 12 -20 23 -2 11 -10 39 -19 63 l-15 44
-27 -26 c-29 -28 -55 -33 -67 -14 -11 17 -6 70 12 156 9 40 13 83 10 97 -7 29
-43 65 -65 65 -9 0 -41 -26 -73 -57 -95 -94 -96 -40 -1 110 13 22 22 42 18 45
-8 9 -40 -31 -70 -89 -34 -66 -120 -157 -135 -143 -8 8 -8 53 1 172 13 190 10
212 -30 212 -30 0 -71 -26 -177 -113 -33 -26 -82 -59 -110 -74 -50 -26 -52
-26 -79 -9 -24 16 -26 23 -22 59 2 23 16 69 30 102 21 47 27 76 27 137 0 84
-1 87 -65 121 -48 27 -127 139 -150 212 -21 72 -34 176 -24 203 8 20 5 22 -21
22 l-30 0 0 98 c0 131 -10 161 -62 195 -51 33 -73 36 -58 7 6 -11 19 -24 30
-30 24 -13 50 -61 50 -93 0 -31 -20 -49 -40 -37 -8 6 -18 10 -22 10 -10 0 -57
-94 -107 -215 -56 -132 -69 -146 -106 -108 -25 24 -15 91 42 275 29 98 47 176
49 217 1 36 8 67 14 71 18 11 4 16 -85 35 -44 9 -121 29 -171 45 -50 16 -122
34 -160 41 -38 6 -85 18 -104 27 -44 19 -127 40 -209 52 -78 12 -132 37 -148
70 -15 30 -17 186 -3 195 6 4 24 -5 41 -20 78 -65 119 -65 119 -1 0 18 7 55
15 82 21 69 138 263 182 301 l37 32 -27 25 c-15 14 -27 32 -27 41 0 10 -10 15
-30 15 -22 0 -41 -11 -70 -40 -55 -55 -126 -153 -161 -222 -16 -32 -36 -58
-44 -58 -70 0 125 299 242 371 33 21 37 43 5 32 -29 -10 -111 -94 -171 -173
-59 -79 -86 -135 -117 -235 -21 -71 -41 -115 -53 -115 -5 0 -21 33 -35 73 -47
123 -52 136 -59 143 -15 15 -6 -56 14 -112 11 -32 23 -97 26 -144 3 -47 12
-95 19 -107 8 -12 14 -32 14 -43 0 -28 33 -90 62 -116 12 -12 43 -32 68 -44
72 -36 116 -76 140 -127 29 -63 114 -192 179 -272 28 -35 65 -89 83 -120 41
-74 55 -89 89 -96 32 -7 91 -71 215 -234 43 -57 111 -146 151 -199 40 -52 93
-125 119 -163 46 -68 77 -102 54 -60 -16 30 3 51 46 51 31 0 34 3 45 43 15 56
67 154 86 162 23 8 53 -4 53 -22 0 -9 -11 -26 -24 -38 -29 -26 -43 -124 -31
-208 4 -29 7 -79 7 -112 -1 -32 5 -79 13 -103 20 -57 19 -72 -5 -72 -19 0 -60
63 -60 93 0 7 -7 22 -15 33 -28 35 -6 -64 30 -136 59 -119 135 -351 135 -413
0 -41 37 -109 58 -105 14 3 17 16 17 79 0 67 3 80 29 117 50 73 70 53 86 -84
5 -49 10 -119 10 -156 0 -86 11 -115 61 -158 33 -29 44 -48 58 -100 11 -41 23
-65 32 -65 9 0 26 33 44 86 57 165 87 160 105 -18 8 -77 16 -106 36 -136 20
-31 29 -37 47 -31 36 11 74 42 114 92 39 49 53 62 65 62 21 0 38 -59 53 -185
26 -230 29 -235 102 -216 34 9 50 23 91 79 68 91 119 139 133 125 13 -13 28
-166 29 -293 1 -107 19 -199 42 -213 29 -19 65 2 113 65 57 76 98 154 120 231
18 62 39 74 55 32 5 -14 19 -78 30 -144 37 -217 70 -366 85 -381 32 -31 73 22
181 235 41 80 77 140 85 140 8 0 22 -17 33 -38 14 -30 20 -73 26 -196 4 -86
12 -166 18 -178 10 -19 20 -21 79 -20 l68 2 37 70 c21 39 47 100 58 137 23 75
57 111 99 106 35 -4 65 -67 92 -193 12 -55 25 -111 31 -124 8 -22 10 -22 27
-7 10 9 24 35 31 59 17 59 45 110 80 148 17 19 40 65 55 110 58 173 93 143
113 -99 5 -57 14 -108 20 -114 16 -16 31 -1 38 40 3 20 12 47 20 59 8 12 17
48 20 80 4 38 15 69 31 90 33 45 52 104 60 185 3 38 11 71 16 75 6 3 21 -7 33
-22 20 -26 24 -27 30 -12 3 10 3 45 0 77 -6 52 -2 73 30 167 l36 108 -7 123
c-6 109 -5 122 9 122 47 0 81 -131 74 -290 -2 -60 -1 -110 3 -110 3 0 12 7 19
15 7 8 23 15 36 15 23 0 24 2 24 84 0 120 -13 173 -75 305 -58 124 -62 146
-46 259 11 75 19 79 81 38 93 -61 246 -263 360 -477 69 -127 130 -213 244
-339 42 -47 75 -92 73 -100 -2 -11 -15 -15 -47 -15 -33 1 -77 16 -168 59 -122
57 -124 57 -212 57 -62 0 -100 -5 -121 -16 -48 -25 -72 -17 -87 33 -8 23 -20
42 -28 42 -18 0 -18 0 5 -145 19 -125 41 -185 66 -185 19 0 19 10 0 34 -17 22
-19 44 -6 65 12 19 131 40 231 40 155 1 264 -38 333 -120 l35 -41 4 29 c3 30
0 30 99 17 32 -4 55 -1 77 10 37 19 38 23 11 56 -11 14 -44 61 -74 105 -55 83
-109 145 -126 145 -16 0 -11 -10 36 -72 25 -33 48 -71 51 -84 6 -24 -1 -44
-16 -44 -11 0 -266 340 -312 416 -40 66 -92 211 -104 287 -7 55 -25 68 -54 42
-25 -23 -35 -15 -109 85 -30 41 -76 98 -101 125 -86 93 -80 59 -80 435 -1 322
-7 421 -28 428 -37 12 -47 31 -47 94 l0 63 145 9 c144 8 216 22 214 41 -1 6
-26 24 -56 40 -189 103 -277 178 -297 251 -27 101 -26 114 24 240 42 107 48
130 55 229 6 99 11 119 46 195 38 82 39 88 35 175 -9 214 -8 227 27 296 18 36
51 87 72 114 47 59 66 93 57 102 -17 16 -106 -97 -163 -207 -24 -47 -28 -67
-29 -135 0 -44 4 -116 9 -160 7 -72 6 -83 -11 -104 l-20 -24 -19 39 c-10 21
-22 37 -26 34 -5 -3 -10 -84 -13 -180 -6 -248 -33 -369 -93 -423 -11 -10 -26
-31 -32 -47 -10 -25 -9 -33 8 -55 11 -14 24 -40 28 -58 19 -89 82 -166 187
-228 124 -73 126 -105 4 -96 -65 4 -93 12 -153 42 l-74 36 -25 -28 c-39 -45
-33 -61 23 -65 l47 -3 5 -95 c4 -84 9 -102 39 -155 l33 -60 -5 -260 c-4 -235
-7 -264 -26 -306 -15 -34 -22 -78 -28 -179 -7 -112 -11 -134 -25 -141 -10 -5
-26 -13 -35 -18 -21 -10 -23 -62 -5 -161 14 -79 15 -200 1 -259 -10 -46 -54
-142 -112 -246 -34 -60 -34 -60 -88 -66 -30 -3 -68 -13 -86 -22 -38 -20 -70
-22 -76 -4 -8 22 34 90 93 152 63 66 72 86 90 225 14 104 32 150 58 150 23 0
50 -37 59 -80 8 -44 23 -36 23 13 0 59 -23 149 -67 263 l-37 96 16 154 c14
140 19 158 46 201 23 37 32 65 37 118 9 93 -10 172 -73 295 -68 132 -87 224
-87 420 0 154 0 155 32 225 43 92 84 237 86 300 1 28 0 105 -2 171 -2 112 -1
125 22 170 13 27 27 61 31 77 7 29 5 30 -46 41 -39 9 -36 36 12 108 50 75 64
124 63 213 -2 142 -9 200 -31 242 -12 23 -22 54 -22 69 0 23 3 26 26 21 19 -3
-12 33 -129 152 -156 159 -207 229 -221 304 -5 24 -33 72 -83 137 -76 101
-102 127 -65 68z m305 -483 c143 -132 166 -165 113 -165 -43 0 -256 216 -256
261 0 10 4 19 9 19 5 0 66 -52 134 -115z m-4103 -626 c0 -28 -19 -61 -31 -54
-13 9 -11 59 3 73 15 15 28 6 28 -19z m4126 -455 c31 -30 30 -40 -14 -191 -28
-99 -53 -153 -71 -153 -5 0 -17 22 -26 49 -14 42 -22 52 -51 61 -20 7 -38 18
-41 25 -2 8 9 33 25 57 16 24 39 63 52 88 46 92 81 110 126 64z m-2445 -29
c55 -19 154 -97 176 -139 9 -17 45 -68 80 -114 49 -65 63 -91 63 -117 0 -44
-20 -55 -100 -55 -59 0 -65 2 -173 74 -113 74 -180 136 -197 182 -15 37 -12
101 5 134 27 52 67 62 146 35z m-331 -5 c0 -5 -4 -10 -10 -10 -5 0 -10 5 -10
10 0 6 5 10 10 10 6 0 10 -4 10 -10z m-630 -75 c9 -11 9 -29 -3 -82 -8 -37
-20 -102 -27 -143 -18 -115 -28 -142 -53 -138 -31 4 -53 56 -83 194 -37 172
-40 158 36 162 36 2 69 7 75 13 14 14 41 11 55 -6z m3248 -187 c24 -24 7 -98
-23 -98 -7 0 -20 7 -29 15 -13 13 -13 19 1 55 17 41 30 49 51 28z m-2360 -50
c18 -18 15 -38 -6 -38 -21 0 -42 18 -42 37 0 16 32 17 48 1z m2482 -83 c12
-31 4 -53 -32 -87 -18 -17 -28 -36 -28 -55 0 -30 -51 -248 -69 -295 -23 -61
-51 -22 -67 94 -5 38 -2 51 21 86 15 23 40 81 55 130 30 95 46 133 64 144 22
15 47 7 56 -17z m-284 0 c7 -18 -12 -45 -32 -45 -18 0 -19 46 -1 53 21 9 27 7
33 -8z m-2796 -25 c0 -13 -7 -20 -20 -20 -19 0 -27 20 -13 33 13 14 33 6 33
-13z m-345 -165 c25 -52 55 -99 65 -105 11 -6 27 -27 35 -47 18 -44 19 -53 2
-53 -33 0 -187 198 -187 241 0 89 32 76 85 -36z m403 -27 c5 -7 13 -29 17 -48
4 -19 20 -59 37 -89 18 -32 28 -62 25 -75 -3 -12 -28 -75 -57 -141 -28 -66
-56 -130 -60 -142 -16 -38 -35 -26 -91 55 -29 42 -65 93 -81 113 -15 20 -28
43 -28 51 0 8 38 57 85 108 47 51 94 113 106 137 22 45 30 51 47 31z m3024
-289 c9 -24 17 -60 17 -80 1 -22 14 -57 37 -95 76 -124 86 -158 91 -294 4
-104 2 -128 -11 -145 -16 -19 -16 -19 -30 -1 -18 22 -31 83 -46 202 -19 165
-33 189 -34 62 -1 -61 -4 -73 -19 -76 -13 -3 -24 10 -40 45 -20 43 -22 63 -22
213 0 170 7 224 28 217 7 -2 20 -24 29 -48z m-1477 -370 c6 1 29 4 51 7 36 5
44 3 58 -17 21 -31 21 -88 0 -96 -10 -3 -49 4 -88 17 -131 42 -133 43 -95 81
14 14 27 19 42 14 12 -3 27 -6 32 -6z m-201 -75 c16 -7 50 -14 75 -14 69 0
174 -19 190 -35 11 -11 10 -18 -7 -42 -11 -16 -42 -49 -67 -72 -36 -33 -51
-41 -68 -36 -12 4 -41 12 -65 19 -34 10 -60 30 -118 91 -41 43 -74 81 -74 85
0 33 72 35 134 4z m109 -265 c27 -16 57 -29 67 -29 10 0 32 -11 47 -24 26 -23
27 -27 16 -56 -13 -35 -8 -43 64 -97 17 -13 47 -58 71 -108 73 -149 157 -252
292 -355 41 -32 107 -89 147 -129 53 -52 78 -71 98 -71 48 0 96 -32 151 -101
30 -38 75 -85 100 -106 59 -50 119 -155 104 -183 -13 -25 -82 -44 -129 -35
-48 9 -108 70 -115 118 -3 20 -8 53 -11 72 -10 58 -40 71 -136 56 -72 -11 -83
-10 -123 7 -38 17 -46 26 -59 68 -9 27 -18 79 -22 116 -4 41 -13 76 -24 89
l-18 22 -21 -35 c-12 -20 -22 -42 -22 -50 0 -19 -36 -65 -61 -79 -42 -22 -149
75 -149 136 0 45 -20 46 -68 4 -33 -29 -36 -30 -48 -14 -14 19 -34 102 -34
140 0 14 15 42 34 62 48 54 59 80 51 120 -5 27 -13 38 -40 49 -19 8 -46 14
-60 14 -14 0 -34 9 -45 20 -17 17 -20 33 -20 120 0 55 -4 100 -9 100 -5 0 -13
-35 -17 -79 -7 -91 -8 -93 -51 -115 -18 -9 -37 -25 -43 -36 -17 -32 -49 -45
-67 -27 -12 12 -13 24 -4 68 15 77 28 245 23 307 -2 29 -2 59 1 67 9 21 73 8
130 -26z m555 -71 c7 -7 12 -32 13 -57 1 -88 15 -140 54 -197 l38 -55 -46 -97
c-26 -53 -54 -101 -63 -107 -12 -8 -32 7 -97 75 -81 84 -126 156 -113 182 3 7
12 22 18 32 7 11 28 44 46 73 31 51 40 58 70 54 26 -4 43 21 37 51 -4 17 -2
35 5 43 15 18 22 19 38 3z m-222 -133 c32 -32 31 -90 -1 -90 -28 0 -72 80 -55
100 17 21 27 19 56 -10z m900 -51 c52 -55 82 -113 99 -194 29 -135 20 -363
-15 -385 -5 -3 -19 -1 -30 5 -16 9 -20 8 -20 -4 0 -20 -40 -40 -117 -60 -81
-21 -110 -20 -157 7 -35 19 -55 42 -122 134 -29 40 -13 53 66 53 39 0 91 5
116 11 41 11 47 9 84 -15 21 -14 49 -39 61 -56 13 -16 31 -30 42 -30 18 0 19
5 12 68 -3 37 -20 124 -36 193 -34 148 -49 309 -29 309 7 0 28 -16 46 -36z
m342 -106 c37 -40 43 -72 32 -171 -8 -68 -18 -103 -37 -137 -15 -25 -30 -69
-34 -98 -10 -74 -22 -86 -82 -78 -66 7 -77 18 -77 80 0 82 29 237 54 291 33
70 83 135 104 135 10 0 28 -10 40 -22z m-1408 -114 c0 -17 -29 -46 -41 -39
-13 9 -11 49 3 63 13 13 38 -2 38 -24z m-460 -143 c0 -23 -16 -36 -25 -21 -9
14 1 40 15 40 5 0 10 -9 10 -19z m-237 -78 c9 -9 -13 -34 -24 -27 -14 8 -11
34 4 34 8 0 17 -3 20 -7z m1987 -217 c19 -24 -47 -155 -71 -140 -14 8 -11 128
3 142 16 16 53 15 68 -2z m-133 -36 c7 -19 12 -65 12 -101 1 -91 -13 -108
-100 -116 l-66 -6 -31 56 c-18 32 -44 63 -60 71 -44 23 -58 44 -41 61 16 16
223 74 254 72 13 -1 24 -14 32 -37z m108 -219 c-8 -32 -23 -51 -41 -51 -21 0
-17 43 7 68 25 28 43 19 34 -17z m-185 -67 c0 -17 -22 -14 -28 4 -2 7 3 12 12
12 9 0 16 -7 16 -16z"/>
<path d="M3317 7490 c-87 -91 -156 -184 -145 -196 3 -2 23 22 46 54 22 31 77
99 122 150 44 50 79 92 77 92 -3 0 -48 -45 -100 -100z"/>
<path d="M4490 7583 c0 -13 137 -158 144 -152 7 7 -53 95 -89 132 -26 25 -55
36 -55 20z"/>
<path d="M3614 7528 l-19 -23 25 20 c14 11 27 21 29 22 2 2 0 3 -6 3 -5 0 -18
-10 -29 -22z"/>
<path d="M4172 7498 c3 -7 29 -27 59 -45 30 -17 81 -47 114 -67 l60 -36 -59
55 c-86 80 -187 134 -174 93z"/>
<path d="M5280 7394 c-68 -31 -120 -70 -120 -90 0 -21 23 -17 38 6 17 28 50
26 62 -4 17 -46 75 -46 129 0 36 30 40 65 11 94 -26 26 -54 25 -120 -6z m91
-4 c24 -14 24 -25 -2 -61 -26 -37 -62 -38 -85 -4 -14 21 -14 28 -3 41 25 30
61 39 90 24z"/>
<path d="M9080 7325 c0 -4 7 -19 15 -35 8 -16 22 -53 30 -82 l15 -53 -4 51
c-5 51 -33 124 -48 124 -4 0 -8 -2 -8 -5z"/>
<path d="M4764 7206 c-99 -50 -190 -129 -265 -232 -104 -141 -106 -153 -5 -27
85 107 200 198 311 249 52 24 71 44 41 44 -7 0 -44 -16 -82 -34z"/>
<path d="M9389 7133 c-71 -73 -88 -96 -98 -137 -16 -63 -7 -71 17 -15 11 24
52 80 91 123 128 140 121 161 -10 29z"/>
<path d="M9160 7071 c0 -5 5 -13 10 -16 6 -3 10 -2 10 4 0 5 -4 13 -10 16 -5
3 -10 2 -10 -4z"/>
<path d="M5910 6964 c0 -4 16 -31 36 -60 19 -30 43 -78 53 -107 49 -141 116
-210 312 -320 86 -49 167 -128 248 -241 43 -61 96 -133 118 -159 22 -27 46
-61 54 -75 7 -15 26 -41 41 -58 23 -25 36 -62 73 -212 25 -101 52 -199 61
-220 21 -51 65 -125 71 -119 2 3 -12 53 -32 111 -20 58 -49 165 -66 238 -35
156 -70 237 -142 327 -29 36 -74 99 -101 138 -100 150 -249 287 -411 379 -105
59 -151 118 -200 258 -19 52 -78 126 -101 126 -8 0 -14 -3 -14 -6z"/>
<path d="M6456 6873 c-4 -10 3 -38 16 -65 19 -38 28 -47 49 -48 40 0 76 -35
126 -122 65 -111 111 -160 228 -238 70 -47 114 -85 143 -124 24 -31 53 -63 66
-71 15 -10 25 -28 28 -53 3 -20 17 -67 32 -104 30 -74 41 -156 52 -370 l7
-147 -27 -35 c-31 -41 -32 -46 -7 -46 30 0 62 32 70 70 10 50 33 45 49 -10 24
-80 46 -123 108 -210 33 -47 66 -95 72 -107 18 -33 5 -53 -33 -53 -25 0 -47
-11 -87 -46 -79 -68 -102 -77 -166 -70 -59 7 -68 -7 -21 -33 35 -20 87 -8 139
32 104 79 132 96 172 102 37 7 44 5 64 -18 40 -47 67 -135 61 -205 -4 -51 -2
-64 12 -71 9 -5 22 -6 28 -4 18 7 5 164 -18 228 -11 28 -19 60 -19 73 0 12 -4
22 -9 22 -5 0 -13 9 -16 20 -3 11 -25 42 -49 70 -30 35 -53 78 -79 152 -47
130 -49 132 -81 136 -33 4 -40 21 -61 140 -15 91 -13 119 19 180 25 49 19 60
-13 22 -27 -32 -31 -34 -46 -19 -20 20 -70 258 -57 271 6 6 24 6 48 -1 55 -15
84 -14 84 4 0 9 -9 15 -25 15 -14 0 -42 7 -61 15 -50 21 -177 117 -192 146 -7
14 -28 33 -47 44 -166 98 -206 126 -250 170 -58 60 -150 208 -140 225 5 8 28
10 75 5 56 -6 74 -4 101 12 l34 18 -130 6 c-145 6 -184 19 -210 69 -19 37 -31
44 -39 23z"/>
<path d="M3588 6834 c-20 -11 -28 -22 -28 -42 0 -43 19 -58 87 -70 33 -6 90
-23 125 -37 76 -32 196 -70 257 -80 74 -12 38 12 -66 45 -119 37 -147 54 -141
85 9 44 -5 50 -104 50 l-93 0 -5 32 c-5 31 -5 31 -32 17z m218 -85 c8 -14 -18
-31 -30 -19 -9 9 0 30 14 30 5 0 12 -5 16 -11z"/>
<path d="M4972 6795 c-18 -39 -14 -50 8 -30 20 18 28 55 12 55 -5 0 -14 -11
-20 -25z"/>
<path d="M3892 6763 c-8 -14 -9 -24 -2 -28 12 -7 24 18 18 37 -3 8 -9 5 -16
-9z"/>
<path d="M7967 6349 c-61 -54 -69 -69 -37 -69 24 0 110 80 110 103 0 26 -12
21 -73 -34z"/>
<path d="M4775 6350 c4 -21 4 -48 0 -60 -7 -22 -34 -27 -52 -9 -13 13 -33 4
-33 -16 0 -8 10 -21 21 -29 43 -30 99 25 99 97 0 32 -14 57 -33 57 -5 0 -6
-18 -2 -40z"/>
<path d="M2766 6304 c-4 -14 -5 -28 -3 -31 3 -2 8 8 11 23 4 14 5 28 3 31 -3
2 -8 -8 -11 -23z"/>
<path d="M2731 6184 c0 -11 3 -14 6 -6 3 7 2 16 -1 19 -3 4 -6 -2 -5 -13z"/>
<path d="M4351 5936 c-117 -164 -160 -196 -340 -252 -107 -34 -208 -77 -377
-159 -198 -97 -236 -120 -271 -159 -54 -62 -73 -104 -73 -163 1 -51 17 -83 43
-83 9 0 65 23 124 51 89 41 121 52 181 56 88 7 77 23 -16 23 -43 0 -75 -6
-100 -19 -52 -27 -157 -55 -178 -47 -24 9 -13 76 20 127 27 39 46 54 171 127
170 99 211 79 240 -114 8 -53 17 -99 20 -102 13 -14 3 111 -16 183 -11 44 -23
90 -26 103 -3 14 1 30 12 42 23 26 123 64 261 100 132 35 152 44 212 95 47 41
174 214 166 227 -10 15 -21 8 -53 -36z"/>
<path d="M4536 5965 c-24 -24 -20 -32 22 -54 46 -24 77 -53 97 -91 28 -54 73
-185 110 -321 21 -74 40 -136 43 -139 10 -10 -10 99 -49 264 -51 221 -70 254
-195 348 -7 5 -18 2 -28 -7z"/>
<path d="M2791 5624 c0 -11 3 -14 6 -6 3 7 2 16 -1 19 -3 4 -6 -2 -5 -13z"/>
<path d="M4360 5450 c0 -6 9 -28 20 -50 25 -48 43 -126 35 -151 -8 -25 -45
-25 -95 1 -56 29 -79 25 -146 -23 -96 -70 -100 -72 -141 -47 -20 12 -61 27
-92 34 l-56 13 -10 101 c-6 56 -15 106 -21 112 -18 18 -23 -1 -13 -55 5 -28
13 -82 19 -122 l11 -71 60 -11 c33 -5 80 -20 104 -32 38 -19 49 -20 70 -11 14
7 35 12 46 12 11 0 35 15 54 34 19 19 42 37 53 40 21 7 152 -48 152 -64 0 -16
30 -12 36 5 3 8 1 30 -6 50 -15 45 -5 95 20 95 21 0 40 -46 40 -99 0 -57 10
-81 37 -87 34 -9 70 13 105 63 28 41 31 43 81 43 68 0 124 -16 152 -44 12 -12
29 -51 39 -91 28 -112 60 -170 109 -197 28 -15 43 -31 45 -47 4 -23 3 -23 -57
-16 -77 9 -79 -6 -5 -29 69 -22 118 -70 161 -158 60 -124 85 -235 112 -503 30
-290 34 -371 23 -480 -10 -96 -13 -105 -87 -252 -106 -210 -158 -285 -301
-434 -68 -71 -124 -133 -124 -138 0 -6 5 -13 10 -16 33 -21 -25 -95 -74 -95
-17 0 -67 7 -111 16 -60 12 -87 13 -107 5 -54 -21 -27 -84 62 -146 29 -20 60
-31 105 -36 36 -5 76 -16 90 -25 19 -12 42 -15 94 -12 59 3 76 8 115 36 25 18
65 39 88 46 24 7 66 29 94 49 28 20 73 47 100 59 27 11 61 30 76 41 19 14 35
18 57 14 29 -6 32 -4 47 33 19 46 56 80 89 80 25 0 35 -17 35 -61 0 -46 26
-36 33 12 7 55 49 114 97 139 48 24 180 56 271 65 51 6 73 3 98 -9 23 -12 36
-14 50 -6 31 16 38 13 66 -35 18 -31 40 -53 73 -69 26 -14 85 -63 132 -111 47
-47 119 -110 161 -140 86 -60 193 -171 282 -294 34 -46 80 -106 102 -134 22
-27 47 -64 57 -81 11 -22 39 -44 90 -71 47 -26 100 -67 149 -115 68 -68 96
-108 182 -260 30 -54 103 -129 134 -136 12 -3 72 1 133 9 109 15 112 16 165
62 30 25 96 91 147 147 98 106 148 138 216 138 58 0 117 -35 171 -103 58 -73
184 -197 201 -197 17 0 71 30 111 61 32 25 42 45 80 156 26 76 63 160 92 208
27 44 52 89 57 100 4 11 29 46 54 79 51 65 56 82 26 91 -32 10 -34 47 -7 157
14 57 31 125 37 153 13 55 102 241 149 309 35 50 37 56 18 56 -47 0 -202 -269
-222 -385 -4 -22 -16 -76 -27 -120 -16 -62 -19 -98 -14 -160 l6 -80 -61 -90
c-80 -119 -100 -160 -140 -284 -36 -110 -66 -155 -113 -167 -33 -8 -48 4 -88
75 -46 81 -126 153 -219 198 -53 26 -79 44 -79 55 0 31 72 69 140 75 65 6 83
21 59 49 -10 12 -25 15 -61 12 -112 -11 -278 -133 -400 -293 -58 -76 -73 -90
-97 -90 -19 0 -36 -10 -55 -32 -15 -18 -54 -50 -88 -73 -61 -41 -62 -41 -146
-38 -69 2 -87 6 -96 21 -9 15 -6 22 14 39 25 20 25 22 32 231 4 117 10 222 13
234 5 21 2 23 -32 23 -48 0 -52 3 -96 73 -36 56 -57 72 -57 41 0 -17 40 -78
93 -142 38 -45 55 -109 43 -158 -7 -26 -14 -27 -58 -9 -14 5 -18 -2 -23 -40
-4 -25 -15 -55 -25 -67 -17 -21 -17 -21 -93 56 -79 78 -87 96 -62 130 25 33
19 116 -10 157 -29 39 -64 68 -82 69 -18 0 -53 -37 -53 -56 0 -15 2 -15 25 0
37 24 52 20 81 -23 17 -27 26 -55 27 -88 2 -43 0 -48 -21 -51 -52 -8 -222 106
-222 148 0 10 -10 20 -24 24 -15 4 -30 20 -41 43 -10 21 -37 70 -61 109 -51
83 -56 109 -19 100 25 -6 35 7 15 19 -21 13 -61 107 -85 201 -27 102 -48 150
-77 168 -22 14 -36 0 -20 -22 40 -55 52 -83 75 -170 39 -152 39 -152 22 -158
-10 -4 -42 19 -95 69 -43 42 -98 86 -121 98 -94 47 -196 169 -239 284 -12 33
-28 77 -36 98 -27 73 -103 177 -129 177 -20 0 -41 31 -79 118 -21 47 -40 107
-43 138 -3 30 -10 57 -16 61 -17 10 0 -118 22 -176 32 -80 29 -91 -24 -91 -32
0 -47 5 -53 18 -5 9 -12 70 -16 134 -6 125 -12 151 -30 145 -13 -5 -12 -21 4
-102 12 -62 7 -153 -10 -186 -13 -24 -84 -72 -163 -111 -69 -34 -178 -111
-217 -153 -40 -44 -101 -85 -126 -85 -18 0 -34 17 -70 73 -26 39 -60 87 -75
105 -16 18 -29 41 -29 51 0 11 18 51 39 89 22 38 50 98 61 133 26 78 35 89 54
64 13 -18 14 -18 25 3 6 11 11 27 11 35 0 8 9 34 19 58 11 24 29 95 41 158 20
104 21 124 11 224 -13 118 -46 234 -116 407 -117 287 -217 459 -310 533 -29
23 -60 56 -68 72 -18 35 -47 135 -47 158 0 32 38 17 80 -30 132 -150 420 -584
524 -792 37 -73 72 -186 101 -320 26 -125 38 -156 57 -145 14 9 2 138 -24 249
-35 154 -73 235 -211 453 -51 81 -115 183 -142 227 -95 155 -401 535 -430 535
-7 0 -25 -16 -40 -35 l-27 -36 -109 7 -109 7 0 -31 c0 -42 -20 -82 -41 -82
-18 0 -29 19 -29 49 0 10 -7 41 -15 69 -13 43 -21 54 -49 66 -19 8 -47 34 -65
60 -30 44 -51 58 -51 36z m1093 -1500 c11 -45 0 -120 -20 -127 -22 -9 -33 15
-33 75 0 89 34 123 53 52z m-206 -836 c60 -69 103 -133 103 -151 0 -24 -56
-73 -84 -73 -18 0 -30 -9 -41 -30 -8 -16 -36 -43 -63 -61 -26 -17 -87 -71
-137 -120 -49 -48 -103 -93 -118 -98 -40 -15 -107 -13 -137 4 -14 8 -38 14
-55 15 -52 0 -100 19 -138 53 -27 23 -35 36 -28 46 8 12 23 12 93 3 106 -15
143 -15 169 1 17 10 23 9 39 -10 25 -31 30 -29 30 10 0 68 25 119 154 313 53
78 124 154 147 154 10 0 39 -25 66 -56z m2203 -1278 c0 -34 -10 -56 -25 -56
-19 0 -24 20 -12 53 11 34 37 36 37 3z"/>
<path d="M5050 2810 c0 -5 7 -10 16 -10 8 0 12 5 9 10 -3 6 -10 10 -16 10 -5
0 -9 -4 -9 -10z"/>
<path d="M2921 5344 c0 -11 3 -14 6 -6 3 7 2 16 -1 19 -3 4 -6 -2 -5 -13z"/>
<path d="M2902 5150 c0 -19 2 -27 5 -17 2 9 2 25 0 35 -3 9 -5 1 -5 -18z"/>
<path d="M7630 5133 c1 -14 78 -98 85 -92 7 8 -55 91 -72 97 -7 2 -13 0 -13
-5z"/>
<path d="M6840 4915 c0 -14 4 -25 9 -25 12 0 19 21 13 38 -8 21 -22 13 -22
-13z"/>
<path d="M3042 4700 c0 -19 2 -27 5 -17 2 9 2 25 0 35 -3 9 -5 1 -5 -18z"/>
<path d="M7535 4557 c-53 -53 -83 -94 -114 -155 -23 -46 -41 -88 -39 -93 2 -5
24 26 50 68 25 43 78 117 117 166 40 48 69 87 65 87 -3 0 -39 -33 -79 -73z"/>
<path d="M3033 4580 c0 -25 2 -35 4 -22 2 12 2 32 0 45 -2 12 -4 2 -4 -23z"/>
<path d="M2817 4527 c-53 -17 -101 -59 -126 -110 -32 -67 -28 -98 19 -141 22
-20 47 -36 55 -36 13 0 81 87 73 95 -2 2 -12 -9 -23 -26 -11 -16 -27 -29 -36
-29 -20 0 -66 35 -79 61 -22 41 65 150 131 164 32 7 81 -15 103 -47 20 -28 20
-81 1 -143 -16 -55 -13 -69 6 -33 7 13 13 58 13 105 1 79 0 84 -29 112 -38 36
-60 42 -108 28z"/>
<path d="M7981 4501 c-17 -11 -6 -31 19 -31 10 0 43 -13 73 -29 48 -25 58 -27
74 -16 16 12 16 15 3 28 -16 14 -123 57 -143 57 -7 0 -18 -4 -26 -9z"/>
<path d="M3022 4430 c0 -19 2 -27 5 -17 2 9 2 25 0 35 -3 9 -5 1 -5 -18z"/>
<path d="M3345 4310 c3 -6 18 -16 33 -24 36 -18 515 -146 547 -146 23 0 24 2
13 20 -8 13 -16 16 -22 10 -15 -15 -50 -12 -113 11 -75 28 -87 37 -72 56 7 7
10 16 7 19 -3 2 -43 12 -89 21 -66 12 -93 13 -125 5 -43 -12 -67 -8 -136 22
-43 19 -51 20 -43 6z"/>
<path d="M8060 4185 c-7 -14 -10 -28 -7 -32 9 -8 47 27 47 44 0 22 -26 15 -40
-12z"/>
<path d="M4213 4153 c15 -2 39 -2 55 0 15 2 2 4 -28 4 -30 0 -43 -2 -27 -4z"/>
<path d="M4702 4005 c-18 -8 -46 -24 -62 -35 -16 -12 -53 -29 -82 -39 -29 -11
-80 -33 -113 -50 -33 -17 -95 -40 -137 -51 -43 -10 -108 -33 -146 -49 -95 -42
-216 -61 -424 -68 l-178 -6 -33 37 c-24 26 -42 36 -63 36 -39 0 -52 -12 -105
-90 -23 -35 -62 -83 -86 -106 -24 -23 -43 -47 -43 -53 0 -18 82 -12 120 8 81
46 96 49 270 59 149 8 185 14 243 36 38 14 109 33 158 41 49 9 127 29 172 45
377 133 385 137 487 204 55 37 100 74 100 82 0 18 -35 18 -78 -1z"/>
<path d="M3100 3529 c0 -38 66 -314 80 -337 9 -14 10 -11 6 13 -3 17 -15 86
-26 155 -25 150 -38 200 -50 200 -6 0 -10 -14 -10 -31z"/>
<path d="M9360 2990 c0 -12 16 -28 48 -46 96 -55 148 -90 207 -141 65 -57 75
-62 75 -36 0 28 -100 114 -211 181 -57 34 -108 62 -112 62 -4 0 -7 -9 -7 -20z"/>
<path d="M6250 2807 c0 -26 66 -137 82 -137 6 0 7 8 3 18 -10 27 -75 142 -80
142 -3 0 -5 -10 -5 -23z"/>
<path d="M3992 2758 c-6 -6 -12 -19 -12 -27 0 -13 2 -13 16 1 9 9 15 21 13 27
-3 9 -8 8 -17 -1z"/>
<path d="M9640 2669 c-68 -43 -300 -272 -300 -295 0 -8 9 -14 21 -14 13 0 53
34 111 94 54 57 112 106 146 126 31 17 72 40 89 51 l33 21 44 -22 c67 -32 192
-185 306 -372 51 -85 52 -88 36 -112 -9 -14 -46 -49 -83 -79 -74 -59 -112 -97
-97 -97 13 0 94 51 152 96 60 46 75 36 107 -70 40 -133 55 -228 56 -369 1 -73
4 -143 8 -157 12 -41 24 199 16 321 -10 153 9 146 93 -31 61 -129 87 -207 108
-330 22 -125 14 -282 -20 -402 -13 -49 -21 -88 -17 -88 11 0 39 66 55 125 7
31 18 50 27 50 11 0 14 -24 13 -134 -2 -157 -11 -176 -90 -202 -50 -16 -105
-48 -274 -158 -119 -77 -169 -82 -185 -19 -4 15 -22 39 -41 53 -40 31 -44 62
-10 94 29 28 172 101 197 101 29 0 43 35 22 55 -38 39 -181 -31 -283 -139 -36
-38 -98 -101 -139 -142 -68 -67 -81 -94 -46 -94 8 0 45 16 83 36 83 43 105 38
122 -29 6 -23 14 -49 19 -57 12 -21 61 -17 123 10 52 22 82 21 72 -3 -13 -36
-335 -187 -501 -236 -69 -21 -92 -35 -79 -49 8 -7 111 13 176 35 150 50 441
219 714 416 106 76 113 71 92 -74 -8 -57 -20 -160 -26 -229 -6 -69 -14 -144
-17 -168 -3 -28 -1 -42 6 -42 20 0 41 66 52 158 6 48 20 155 32 237 18 127 22
195 22 445 l0 295 -68 258 c-36 142 -76 279 -87 305 -12 26 -41 67 -64 92 -24
25 -61 78 -81 119 -20 41 -52 97 -70 125 -18 28 -58 95 -89 148 -72 124 -172
257 -209 277 -16 9 -57 37 -91 63 -77 60 -100 61 -186 7z"/>
<path d="M3947 2624 c-13 -14 5 -24 42 -24 41 0 47 -8 70 -90 l9 -35 1 30 c1
34 -16 102 -27 108 -15 9 -88 18 -95 11z"/>
<path d="M4315 2306 c-17 -12 -15 -14 19 -20 20 -4 69 -4 108 0 66 6 69 8 47
20 -32 18 -150 18 -174 0z"/>
<path d="M7806 2132 c-9 -11 -33 -62 -53 -114 -19 -51 -50 -128 -70 -171 -19
-43 -32 -81 -30 -84 8 -8 55 68 63 102 4 17 10 35 15 40 14 19 100 228 96 238
-1 5 -11 0 -21 -11z"/>
<path d="M5210 2100 c-8 -5 -10 -10 -5 -10 6 0 17 5 25 10 8 5 11 10 5 10 -5
0 -17 -5 -25 -10z"/>
<path d="M5058 2079 c-152 -10 -318 -48 -318 -71 0 -6 16 -28 35 -50 27 -29
33 -43 26 -56 -22 -41 -87 -94 -168 -138 -306 -163 -323 -176 -323 -242 0 -41
1 -44 24 -38 30 7 43 -8 89 -106 20 -43 49 -97 65 -120 41 -61 44 -75 27 -124
-8 -25 -15 -67 -15 -93 0 -27 -13 -179 -29 -337 -36 -352 -45 -484 -33 -464 5
8 14 60 21 115 46 388 82 674 87 697 7 34 30 43 60 23 28 -18 30 -39 8 -90
-14 -33 -14 -39 0 -61 21 -30 21 -145 1 -364 -28 -299 -30 -363 -14 -358 9 3
15 22 16 54 2 27 9 114 18 194 8 80 19 213 25 295 13 179 20 238 30 255 14 23
51 0 71 -46 12 -26 31 -50 48 -59 38 -19 44 -39 21 -68 -23 -29 -52 -186 -49
-266 1 -31 -2 -134 -6 -228 -6 -118 -5 -173 2 -173 16 0 23 36 23 115 0 39 5
108 11 155 5 47 13 118 18 159 7 68 10 77 41 102 19 16 50 34 69 40 51 16 56
24 37 53 -10 16 -16 46 -16 84 0 65 -7 80 -25 55 -19 -25 -49 1 -42 36 5 24
-4 32 -95 91 -142 92 -209 161 -244 252 -33 88 -64 143 -115 206 -21 25 -39
54 -39 63 0 30 60 71 265 179 121 64 214 129 214 151 1 8 -10 25 -24 37 -16
14 -22 27 -18 38 10 27 110 64 201 75 71 9 188 39 142 37 -8 -1 -63 -4 -122
-9z m-163 -1279 c4 -6 1 -18 -6 -26 -11 -13 -14 -13 -27 0 -8 8 -11 19 -8 25
9 14 33 14 41 1z"/>
<path d="M5504 1450 c-12 -5 -25 -14 -30 -21 -5 -9 1 -10 25 -6 41 9 47 -6 27
-73 -25 -84 -3 -94 61 -27 66 69 75 104 32 127 -22 12 -86 12 -115 0z"/>
<path d="M6957 1406 c6 -63 -17 -123 -66 -170 -24 -23 -32 -26 -49 -17 -25 14
-40 -3 -22 -24 33 -39 96 0 139 86 41 81 48 122 27 154 -26 39 -35 30 -29 -29z"/>
<path d="M4330 1318 c0 -51 -7 -167 -15 -258 -9 -91 -18 -250 -22 -354 l-6
-188 21 7 c55 17 35 -83 -58 -285 -61 -131 -83 -211 -62 -224 5 -3 15 15 21
42 7 26 44 114 83 196 l70 149 -7 196 c-10 298 -11 449 -1 639 8 157 8 172 -7
172 -15 0 -17 -13 -17 -92z"/>
<path d="M6787 1332 c-18 -20 -23 -52 -8 -52 8 0 41 54 41 67 0 9 -19 1 -33
-15z"/>
<path d="M9751 1286 c-18 -22 10 -44 48 -38 37 5 47 18 31 37 -16 19 -64 19
-79 1z"/>
<path d="M5978 1109 c-20 -11 -24 -34 -8 -44 6 -4 17 -1 25 5 9 7 29 15 46 19
16 3 31 11 32 16 3 14 -74 17 -95 4z"/>
<path d="M10132 1048 c-8 -8 -9 -15 -1 -25 22 -26 55 -10 43 21 -7 19 -25 21
-42 4z"/>
<path d="M5755 810 c-10 -16 4 -84 36 -186 23 -72 45 -115 109 -208 45 -64 85
-128 90 -141 5 -14 14 -64 20 -112 14 -115 20 -143 31 -143 10 0 4 78 -17 187
-15 83 -39 134 -92 195 -76 88 -157 277 -150 350 4 46 44 51 88 11 31 -28 100
-183 157 -353 24 -72 147 -325 178 -364 8 -11 17 -17 20 -14 3 3 -6 19 -20 36
-45 54 -127 242 -215 498 -60 171 -81 217 -112 238 -25 18 -113 22 -123 6z"/>
<path d="M7921 680 c-41 -5 -122 -24 -180 -44 -58 -19 -164 -47 -235 -61 -71
-14 -149 -34 -174 -45 -109 -49 -240 -60 -459 -40 -108 10 -127 16 -183 62
-60 49 -82 34 -27 -20 45 -43 89 -59 187 -67 47 -4 110 -13 141 -21 31 -8 84
-14 118 -14 33 0 81 -7 107 -16 60 -20 75 -17 223 51 120 55 215 84 463 140
116 26 168 51 154 73 -8 13 -24 13 -135 2z"/>
<path d="M5070 670 c18 -12 78 -12 105 0 14 6 -2 9 -50 9 -49 1 -65 -2 -55 -9z"/>
<path d="M5222 655 c41 -23 68 -75 68 -133 0 -27 9 -94 20 -147 17 -81 27
-107 57 -147 21 -27 48 -56 61 -64 17 -11 11 0 -19 38 -61 76 -86 139 -94 233
-13 169 -41 236 -97 235 -22 -1 -22 -1 4 -15z"/>
<path d="M4977 593 c5 -16 7 -122 6 -237 -1 -114 0 -206 3 -204 11 11 36 224
37 318 2 108 -9 150 -39 150 -11 0 -13 -6 -7 -27z"/>
<path d="M5175 520 c-9 -15 4 -84 19 -106 13 -17 14 -17 20 4 8 23 -9 98 -24
107 -5 3 -12 1 -15 -5z"/>
</g>
</svg>
